<svg width="25" height="25" viewBox="0 0 25 25" fill="none" xmlns="http://www.w3.org/2000/svg">
<path d="M21.8942 12.2116L21.8941 12.2115L10.7606 2.06401L10.7605 2.06397C10.3002 1.64464 9.56341 1.64533 9.10384 2.06612L9.10378 2.06617C8.63144 2.49894 8.63284 3.20986 9.10614 3.64127L9.10614 3.64127L19.3742 13L9.10577 22.3588L9.10574 22.3588C8.63252 22.7902 8.63111 23.5008 9.10338 23.9336L9.10347 23.9337C9.33601 24.1466 9.63699 24.25 9.93316 24.25C10.2285 24.25 10.5284 24.1473 10.7605 23.9358L10.7605 23.9358L21.8939 13.7887C21.894 13.7887 21.894 13.7886 21.8941 13.7886C22.1191 13.5839 22.25 13.3005 22.25 13C22.25 12.6993 22.1185 12.4163 21.8942 12.2116Z" fill="white" stroke="white" stroke-width="0.5"/>
</svg>
