<svg width="15" height="24" viewBox="0 0 15 24" fill="none" xmlns="http://www.w3.org/2000/svg">
<path d="M14.2861 11.2116L14.2862 11.2117C14.5103 11.4164 14.6416 11.6993 14.6416 12C14.6416 12.3003 14.5109 12.5837 14.2861 12.7884L14.2861 11.2116ZM14.2861 11.2116L3.16419 1.0641L3.16413 1.06405C2.70415 0.644613 1.96783 0.645304 1.50861 1.0662L1.50855 1.06626C1.03672 1.49901 1.03811 2.20978 1.51091 2.64118L1.51091 2.64118L11.7684 12L1.51054 21.3589L1.51051 21.3589C1.03779 21.7903 1.03639 22.5007 1.50815 22.9335L1.50824 22.9336C1.74058 23.1465 2.04134 23.25 2.33734 23.25C2.63253 23.25 2.93214 23.1472 3.16409 22.9357L3.16414 22.9357L14.2859 12.7886L14.2861 11.2116Z" fill="#453D2B" stroke="#453D2B" stroke-width="0.5"/>
</svg>
