<svg width="40" height="40" viewBox="0 0 40 40" fill="none" xmlns="http://www.w3.org/2000/svg">
<path d="M20 2.34375C25.6345 2.34375 30.8987 5.07629 34.2093 9.45312H30.5469V11.7969H37.5781V4.76562H35.2344V7.04376C31.4673 2.69714 25.9238 0 20 0C9.01489 0 0 9.01489 0 20H2.34375C2.34375 10.307 10.307 2.34375 20 2.34375Z" fill="#453D2B"/>
<path d="M20 37.6562C14.3655 37.6562 9.10126 34.9237 5.79071 30.5469H9.45312V28.2031H2.42188V35.2344H4.76562V32.9562C8.53271 37.3029 14.0762 40 20 40C30.9851 40 40 30.9851 40 20H37.6562C37.6562 29.693 29.693 37.6562 20 37.6562Z" fill="#453D2B"/>
<path d="M20 7.10938C12.8922 7.10938 7.10938 12.8922 7.10938 20C7.10938 27.1078 12.8922 32.8906 20 32.8906C27.1078 32.8906 32.8906 27.1078 32.8906 20C32.8906 12.8922 27.1078 7.10938 20 7.10938ZM19.9875 19.1714C21.926 19.1714 23.5031 20.7486 23.5031 22.6871C23.5031 24.2081 22.5266 25.4941 21.1719 25.983V28.2031H18.8281V25.9906C17.4606 25.509 16.4719 24.2648 16.4719 22.7344H18.8156C18.8156 23.381 19.3408 23.8589 19.9875 23.8589C20.6339 23.8589 21.1594 23.3337 21.1594 22.6871C21.1594 22.0404 20.6339 21.5152 19.9875 21.5152C18.0487 21.5152 16.4719 19.9384 16.4719 17.9996C16.4719 16.4691 17.4606 15.1779 18.8281 14.696V11.7969H21.1719V14.704C22.5266 15.1926 23.5031 16.4478 23.5031 17.9688H21.1594C21.1594 17.3221 20.6339 16.8277 19.9875 16.8277C19.3408 16.8277 18.8156 17.3529 18.8156 17.9996C18.8156 18.6462 19.3408 19.1714 19.9875 19.1714Z" fill="#453D2B"/>
</svg>
