<svg width="20" height="20" viewBox="0 0 20 20" fill="none" xmlns="http://www.w3.org/2000/svg">
<path d="M10 3.55469C6.44608 3.55469 3.55469 6.44608 3.55469 10C3.55469 13.5539 6.44608 16.4453 10 16.4453C13.5539 16.4453 16.4453 13.5539 16.4453 10C16.4453 6.44608 13.5539 3.55469 10 3.55469ZM9.99374 9.58572C10.963 9.58572 11.7516 10.3743 11.7516 11.3435C11.7516 12.104 11.2633 12.747 10.5859 12.9915V14.1016H9.41406V12.9953C8.73032 12.7545 8.23593 12.1324 8.23593 11.3672H9.40781C9.40781 11.6905 9.67041 11.9295 9.99374 11.9295C10.3169 11.9295 10.5797 11.6669 10.5797 11.3435C10.5797 11.0202 10.3169 10.7576 9.99374 10.7576C9.02435 10.7576 8.23593 9.96918 8.23593 8.99979C8.23593 8.23456 8.73032 7.58896 9.41406 7.34802V5.89844H10.5859V7.35199C11.2633 7.59628 11.7516 8.22388 11.7516 8.98438H10.5797C10.5797 8.66104 10.3169 8.41385 9.99374 8.41385C9.67041 8.41385 9.40781 8.67645 9.40781 8.99979C9.40781 9.32312 9.67041 9.58572 9.99374 9.58572Z" fill="#453D2B" fill-opacity="0.75"/>
</svg>
