<svg width="40" height="40" viewBox="0 0 40 40" fill="none" xmlns="http://www.w3.org/2000/svg">
<path d="M40 29.7419C40 31.9355 38.2581 33.6774 36.129 33.6774H3.87097C1.74194 33.6774 0 31.9355 0 29.7419V10.129C0 7.93548 1.74194 6.19354 3.87097 6.19354H36.129C38.2581 6.19354 40 7.93548 40 10.129V29.7419Z" fill="#00AFCA"/>
<path d="M3.87109 6.19354H36.1292C38.2582 6.19354 40.0001 7.93548 40.0001 10.129V29.7419C40.0001 31.9355 38.2582 33.6774 36.1292 33.6774" fill="#049BAF"/>
<path d="M3.87109 6.19354H36.1292C38.2582 6.19354 40.0001 7.93548 40.0001 10.129V17.2903" fill="#058DA3"/>
<path d="M40 29.7419C40 31.9355 38.2581 33.6774 36.129 33.6774H3.87097C1.74194 33.6774 0 31.9355 0 29.7419" fill="#058DA3"/>
<path d="M25.0965 12.5161C25.3546 12.5806 25.4836 12.3871 25.5481 12.1935C25.6126 11.9355 25.4836 10.5806 25.4836 10.5806C25.4836 10.5806 24.8384 11.8065 24.7739 12.0645C24.7739 12.2581 24.8384 12.4516 25.0965 12.5161Z" fill="#FCA110"/>
<path d="M26.1287 12.8387C26.3867 12.9677 26.5158 12.8387 26.6448 12.6452C26.7738 12.3871 26.9028 11.0323 26.9028 11.0323C26.9028 11.0323 26.0642 12.0645 25.9351 12.3226C25.8061 12.5161 25.8706 12.7097 26.1287 12.8387Z" fill="#FCA110"/>
<path d="M27.0321 13.2903C27.2901 13.4194 27.4192 13.3548 27.5482 13.1613C27.6772 12.9032 28.1288 11.6129 28.1288 11.6129C28.1288 11.6129 27.0966 12.5161 26.9676 12.7097C26.774 12.9677 26.774 13.1613 27.0321 13.2903Z" fill="#FCA110"/>
<path d="M27.8062 13.9355C27.9998 14.129 28.1933 14.0645 28.3224 13.9355C28.5159 13.7419 29.1611 12.5806 29.1611 12.5806C29.1611 12.5806 27.9998 13.2258 27.8062 13.4194C27.6772 13.5484 27.6127 13.7419 27.8062 13.9355Z" fill="#FCA110"/>
<path d="M28.4512 14.7742C28.5802 14.9677 28.7738 14.9677 28.9673 14.9032C29.2254 14.7742 30.0641 13.7419 30.0641 13.7419C30.0641 13.7419 28.7738 14.129 28.5157 14.3226C28.3867 14.3226 28.3222 14.5161 28.4512 14.7742Z" fill="#FCA110"/>
<path d="M28.9675 15.6774C29.0965 15.9355 29.29 15.9355 29.4836 15.871C29.7417 15.7419 30.7739 14.9032 30.7739 14.9032C30.7739 14.9032 29.4191 15.0323 29.161 15.1613C28.9675 15.2258 28.8384 15.4193 28.9675 15.6774Z" fill="#FCA110"/>
<path d="M29.5477 16.1935C29.3541 16.2581 29.2251 16.3871 29.2251 16.6452C29.2896 16.9032 29.4832 16.9677 29.6767 16.9677C29.9348 16.9032 31.1606 16.2581 31.1606 16.2581C31.1606 16.2581 29.8057 16.129 29.5477 16.1935Z" fill="#FCA110"/>
<path d="M29.7421 17.2903C29.5485 17.2903 29.355 17.4194 29.355 17.6774C29.355 17.9355 29.5485 18.0645 29.7421 18.0645C30.0001 18.0645 31.2905 17.6774 31.2905 17.6774C31.2905 17.6774 30.0001 17.2903 29.7421 17.2903Z" fill="#FCA110"/>
<path d="M29.6772 18.3871C29.4836 18.3226 29.2901 18.3871 29.2255 18.7097C29.161 18.9677 29.3546 19.0968 29.5481 19.1613C29.8062 19.2258 31.161 19.0968 31.161 19.0968C31.161 19.0968 29.9352 18.4516 29.6772 18.3871Z" fill="#FCA110"/>
<path d="M29.4186 19.4839C29.2251 19.4194 29.0316 19.4194 28.9025 19.6774C28.7735 19.9355 28.9025 20.0645 29.0961 20.1936C29.3541 20.3226 30.709 20.4516 30.709 20.4516C30.709 20.4516 29.6767 19.5484 29.4186 19.4839Z" fill="#FCA110"/>
<path d="M28.9675 20.4516C28.774 20.3226 28.5804 20.3226 28.4514 20.5807C28.3224 20.8387 28.3869 20.9677 28.5804 21.0968C28.8385 21.2258 30.1288 21.6774 30.1288 21.6774C30.1288 21.6774 29.2256 20.6452 28.9675 20.4516Z" fill="#FCA110"/>
<path d="M28.3224 21.3548C28.1933 21.2258 27.9998 21.1613 27.8062 21.3548C27.6127 21.5484 27.6772 21.7419 27.8062 21.871C27.9998 22.0645 29.1611 22.7097 29.1611 22.7097C29.1611 22.7097 28.5159 21.5484 28.3224 21.3548Z" fill="#FCA110"/>
<path d="M28.1287 23.6129C28.1287 23.6129 27.7416 22.3226 27.5481 22.0645C27.419 21.871 27.2255 21.8064 27.032 21.9355C26.7739 22.0645 26.8384 22.2581 26.9029 22.4516C27.032 22.7742 28.1287 23.6129 28.1287 23.6129Z" fill="#FCA110"/>
<path d="M26.8381 24.3226C26.8381 24.3226 26.709 22.9677 26.58 22.7097C26.5155 22.5161 26.3219 22.3871 26.0639 22.5161C25.8058 22.6452 25.8058 22.8387 25.8703 23.0323C25.9993 23.2258 26.8381 24.3226 26.8381 24.3226Z" fill="#FCA110"/>
<path d="M21.2903 22.5161C21.4193 22.3226 21.4193 22.129 21.1612 22C20.9032 21.871 20.7741 21.9355 20.6451 22.129C20.5161 22.3871 20.0645 23.6774 20.0645 23.6774C20.0645 23.6774 21.1612 22.7742 21.2903 22.5161Z" fill="#FEC50C"/>
<path d="M20.3871 21.3548C20.1935 21.1613 20 21.2258 19.8709 21.3548C19.6774 21.5484 19.0322 22.7097 19.0322 22.7097C19.0322 22.7097 20.1935 22.0645 20.3871 21.871C20.5161 21.7419 20.5806 21.5484 20.3871 21.3548Z" fill="#FEC50C"/>
<path d="M19.7418 20.5806C19.6128 20.3871 19.4192 20.3871 19.2257 20.4516C18.9676 20.5806 18.1289 21.6129 18.1289 21.6129C18.1289 21.6129 19.4192 21.2258 19.6773 21.0323C19.8063 20.9677 19.8708 20.7742 19.7418 20.5806Z" fill="#FEC50C"/>
<path d="M19.2903 19.6774C19.1613 19.4194 18.9678 19.4194 18.7742 19.4839C18.5161 19.6129 17.4839 20.4516 17.4839 20.4516C17.4839 20.4516 18.8387 20.3226 19.0968 20.1936C19.2258 20.0645 19.3549 19.9355 19.2903 19.6774Z" fill="#FEC50C"/>
<path d="M18.9677 18.7097C18.9032 18.4516 18.7096 18.3871 18.5161 18.3871C18.258 18.4516 17.0322 19.0323 17.0322 19.0323C17.0322 19.0323 18.3871 19.1613 18.6451 19.0968C18.8387 19.0968 19.0322 18.9677 18.9677 18.7097Z" fill="#FEC50C"/>
<path d="M18.8388 17.6774C18.8388 17.4194 18.6453 17.2903 18.4517 17.2903C18.1936 17.2903 16.9033 17.6774 16.9033 17.6774C16.9033 17.6774 18.1936 18.0645 18.4517 18.0645C18.7098 18.0645 18.8388 17.9355 18.8388 17.6774Z" fill="#FEC50C"/>
<path d="M18.9677 16.6452C19.0322 16.3871 18.9032 16.2581 18.6451 16.1935C18.3871 16.129 17.0322 16.2581 17.0322 16.2581C17.0322 16.2581 18.258 16.9032 18.5161 16.9677C18.7096 16.9677 18.9032 16.9032 18.9677 16.6452Z" fill="#FCA110"/>
<path d="M19.2903 15.6774C19.4194 15.4194 19.2903 15.2903 19.0968 15.1613C18.8387 15.0323 17.4839 14.9032 17.4839 14.9032C17.4839 14.9032 18.5161 15.7419 18.7742 15.871C18.9678 15.9355 19.1613 15.9355 19.2903 15.6774Z" fill="#FCA110"/>
<path d="M19.2257 14.8387C19.4193 14.9677 19.6128 14.9677 19.7419 14.7097C19.8709 14.4516 19.8064 14.3226 19.6128 14.1935C19.3548 14.0645 18.0645 13.6129 18.0645 13.6129C18.0645 13.6129 18.9677 14.7097 19.2257 14.8387Z" fill="#FCA110"/>
<path d="M20.3871 13.9355C20.5806 13.7419 20.5161 13.5484 20.3871 13.4194C20.1935 13.2258 19.0322 12.5806 19.0322 12.5806C19.0322 12.5806 19.6774 13.7419 19.8709 13.9355C20 14.0645 20.1935 14.129 20.3871 13.9355Z" fill="#FCA110"/>
<path d="M24.0645 22.2581C26.5944 22.2581 28.6452 20.2072 28.6452 17.6774C28.6452 15.1476 26.5944 13.0968 24.0645 13.0968C21.5347 13.0968 19.4839 15.1476 19.4839 17.6774C19.4839 20.2072 21.5347 22.2581 24.0645 22.2581Z" fill="#FCA110"/>
<path d="M24.1288 12.4516C24.3869 12.4516 24.5159 12.2581 24.5159 12.0645C24.5159 11.8065 24.1288 10.5161 24.1288 10.5161C24.1288 10.5161 23.7417 11.8065 23.7417 12.0645C23.7417 12.2581 23.8062 12.4516 24.1288 12.4516Z" fill="#FCA110"/>
<path d="M25.097 22.7742C24.8389 22.8387 24.7744 23.0323 24.7744 23.2258C24.8389 23.4839 25.4841 24.7097 25.4841 24.7097C25.4841 24.7097 25.6131 23.3548 25.5486 23.0968C25.5486 22.9032 25.4196 22.7097 25.097 22.7742Z" fill="#FCA110"/>
<path d="M23.7422 23.2903C23.7422 23.5484 24.1293 24.8387 24.1293 24.8387C24.1293 24.8387 24.5164 23.5484 24.5164 23.2903C24.5164 23.0968 24.3874 22.9032 24.1293 22.9032C23.8067 22.9032 23.7422 23.0968 23.7422 23.2903Z" fill="#FEC50C"/>
<path d="M22.6455 23.0968C22.581 23.3548 22.71 24.7097 22.71 24.7097C22.71 24.7097 23.3552 23.4839 23.4197 23.2258C23.4842 23.0323 23.4197 22.8387 23.0971 22.7742C22.8391 22.7097 22.6455 22.9032 22.6455 23.0968Z" fill="#FEC50C"/>
<path d="M22.1292 22.5161C21.8711 22.3871 21.7421 22.5161 21.613 22.7097C21.484 22.9677 21.355 24.3226 21.355 24.3226C21.355 24.3226 22.1937 23.2903 22.3227 23.0323C22.3872 22.7742 22.3227 22.5806 22.1292 22.5161Z" fill="#FEC50C"/>
<path d="M21.1611 13.2903C21.4192 13.1613 21.3547 12.9677 21.2902 12.7742C21.1611 12.5161 20.1289 11.6774 20.1289 11.6774C20.1289 11.6774 20.516 12.9677 20.7095 13.2258C20.7741 13.3548 20.9676 13.4839 21.1611 13.2903Z" fill="#FCA110"/>
<path d="M22.1287 12.8387C22.3868 12.7097 22.3868 12.5161 22.3223 12.3226C22.1932 12.0645 21.3545 11.0323 21.3545 11.0323C21.3545 11.0323 21.4835 12.3871 21.6126 12.6452C21.6771 12.7742 21.8706 12.9032 22.1287 12.8387Z" fill="#FCA110"/>
<path d="M23.0966 12.5161C23.3547 12.4516 23.4192 12.2581 23.4192 12.0645C23.3547 11.8065 22.7095 10.5806 22.7095 10.5806C22.7095 10.5806 22.5805 11.9355 22.645 12.1936C22.645 12.4516 22.8386 12.5807 23.0966 12.5161Z" fill="#FCA110"/>
<path d="M20.7746 25.4193V25.4839H20.8391L20.9036 25.5484H20.9682L21.0972 25.6129H21.2262H21.4843L21.7424 25.6774H22.0004H22.2585H22.3875L22.5166 25.7419H22.6456L22.7746 25.8064H22.8391L22.9682 25.871L23.0327 25.9355L23.1617 26L23.2262 25.9355V25.871L23.2907 25.7419L23.3553 25.6129L23.4198 25.4839L23.1617 25.4193H22.9036H22.6456L22.323 25.3548L22.0649 25.2903L21.8069 25.2258L21.5488 25.1613L21.2907 25.0968L21.0327 24.9677L20.7746 24.9032L20.5165 24.7742L20.2585 24.6452L20.0649 24.5806L19.9359 24.4516L19.7424 24.3871L19.6133 24.2581L19.3553 24.129L19.1617 23.9355L18.9682 23.7419L18.7101 23.5484L18.5165 23.3548L18.323 23.1613L18.1294 22.9677L18.0004 22.7097L17.8714 22.5806L17.8069 22.4516L17.6778 22.3226L17.6133 22.1935L17.5488 22.0645L17.4198 21.9355L17.3553 21.7419L17.2907 21.6129L17.1617 21.4193L17.0972 21.2258L17.0327 20.9677L16.9682 20.7742L16.9036 20.5806L16.8391 20.3871L16.7746 20.129L16.7101 19.871H16.6456H16.5811H16.5165H16.452V19.9355L16.3875 20V20.0645V20.129V20.2581V20.3871V20.5161L16.452 20.7097V20.8387V21.0322L16.5165 21.2903L16.452 21.1613L16.3875 21.0322L16.323 20.9677V20.8387L16.194 20.5806L16.1294 20.3226L16.0649 20.0645L16.0004 19.8064L15.9359 19.5484L15.8714 19.3548V19.2903H15.8069H15.7423H15.6778H15.6133V19.3548H15.5488V19.4193V19.4839V19.5484V19.6129V19.6774V19.8064V20V20.129L15.6133 20.3226L15.6778 20.4516L15.7423 20.6452L15.8069 20.7742L15.8714 20.9677L15.9359 21.0968L16.0004 21.2903L16.1294 21.5484L16.2585 21.8064L16.1294 21.7419L16.0649 21.6129L15.9359 21.4839L15.8714 21.4193L15.6778 21.1613L15.5488 20.9032L15.4198 20.7097L15.2907 20.5161L15.2262 20.4516H15.1617L15.0972 20.3871H15.0327H14.9682H14.9036H14.8391L14.7746 20.4516V20.5161V20.5806L14.8391 20.7097L14.9036 20.8387L14.9682 20.9677L15.0327 21.0968L15.1617 21.2258L15.2262 21.4193L15.3552 21.6129L15.4843 21.7419L15.7423 22.0645L15.9359 22.3226L16.0004 22.4516L16.1294 22.5161L16.194 22.5806L16.2585 22.6452L16.1294 22.5806L16.0649 22.5161H16.0004L15.8714 22.4516L15.7423 22.2581L15.5488 22.129L15.3552 21.9355L15.2262 21.8064L15.0327 21.6129L14.9036 21.4839L14.8391 21.4193H14.7746H14.7101H14.6456V21.4839H14.5811V21.5484V21.6129L14.7101 21.7419L14.7746 21.871L14.8391 22L14.9682 22.129L15.1617 22.3226L15.4198 22.5806L15.6133 22.7742L15.8714 23.0323L16.0649 23.1613L16.2585 23.2903L16.194 23.3548H16.1294L16.0649 23.2903H16.0004H15.9359L15.8714 23.2258H15.8069L15.7423 23.1613L15.6133 23.0968L15.4843 23.0323H15.4198L15.3552 22.9677H15.2907H15.2262V23.0323L15.2907 23.0968V23.1613L15.3552 23.2258V23.2903H15.4198L15.4843 23.3548L15.5488 23.4839L15.6778 23.5484L15.8069 23.6129L15.9359 23.7419L16.0649 23.8064L16.194 23.871L16.3875 23.9355L16.5165 24L16.7101 24.129L16.9036 24.1935H16.8391H16.7746H16.5811H16.3875H16.2585H16.1294H16.0649H16.0004V24.2581L16.0649 24.3226L16.1294 24.3871H16.2585L16.323 24.4516H16.3875H16.452L16.5811 24.5161H16.7101H16.9036L16.9682 24.5806H17.0327H17.0972H17.1617V24.6452H17.0972L17.0327 24.7097H16.9036H16.7746L16.7101 24.7742H16.5811H16.5165V24.8387H16.5811L16.6456 24.9032H16.7746L17.0327 24.9677L17.4198 25.0323L17.2907 25.0968L17.0972 25.1613H17.0327H16.9682L16.9036 25.2258L16.9682 25.2903H17.0327L17.1617 25.3548L17.3553 25.4193H17.6133L17.8714 25.4839L17.7424 25.5484H17.6133L17.5488 25.6129H17.4843H17.4198V25.6774H17.5488L17.6778 25.7419L17.8714 25.8064L18.0004 25.871L18.3875 26.0645L18.7101 26.1935L18.9036 26.2581L19.0972 26.3226L19.2907 26.3871L19.4843 26.4516L19.7424 26.5161H19.9359L20.194 26.5806H20.3875H20.2585L20.1295 26.5161H20.0004L19.8714 26.4516L19.4843 26.3226L19.0972 26.1935L18.7746 26.0645L18.452 25.9355L18.2585 25.871L18.194 25.8064L18.0649 25.7419L18.0004 25.6774L18.0649 25.6129L18.194 25.5484L18.2585 25.4839L18.3875 25.4193H18.2585H18.194H18.0649L17.9359 25.3548L17.8714 25.2903H17.7424L17.6778 25.2258L17.6133 25.1613L17.8714 24.9677H17.8069L17.7424 24.9032H17.6778H17.6133L17.4843 24.8387L17.3553 24.7742V24.7097V24.6452H17.4198V24.5806H17.4843V24.5161L17.4198 24.4516H17.3553H17.2907V24.3871H17.2262V24.3226V24.2581L17.2907 24.1935V24.129H17.2262H17.1617L17.0972 24.0645H16.9682L16.9036 24L16.7746 23.9355L16.7101 23.871L16.5811 23.8064L16.5165 23.7419L16.452 23.6774H16.5165H16.6456H16.7746H16.8391L16.7746 23.6129L16.7101 23.5484L16.5811 23.4193L16.5165 23.3548L16.452 23.2903L16.3875 23.2258L16.323 23.0968L16.2585 23.0323H16.5811H16.6456V22.9677V22.9032L16.5811 22.8387V22.7097L16.5165 22.5806L16.452 22.4516L16.3875 22.3871L16.323 22.2581L16.2585 22.1935H16.323H16.3875H16.452H16.5165H16.5811V22.2581H16.6456L16.7101 22.1935V22.129V22.0645H16.7746L16.9036 22.129L16.9682 22.1935L17.0972 22.3226L17.1617 22.3871L17.3553 22.5806L17.4843 22.7097L17.8069 23.0968L18.0649 23.4193L18.194 23.6129L18.323 23.7419L18.3875 23.8064L18.452 23.9355L18.5811 24L18.6456 24.0645L18.7101 24.129H18.8391L18.9036 24.1935L19.0327 24.2581L19.0972 24.3226H19.2262L19.3553 24.3871H19.4843L19.5488 24.4516H19.6133L19.6778 24.5161L19.7424 24.5806L19.8714 24.7097L20.0649 24.8387L20.2585 25.0323L20.3875 25.2258L20.5165 25.2903L20.5811 25.3548L20.6456 25.4193H20.7746Z" fill="#FEC50C"/>
<path d="M22.3877 28.1935H22.9038H23.42H23.8716H24.2587H24.3877H24.5168H24.4522H24.3232H23.678H23.4845H23.3555H23.2909H23.2264H23.1619L23.0974 28.129L23.0329 28.1935H22.9684H22.9038H22.5813H22.5167H22.4522H22.3877L22.4522 28.129L22.5167 28.0645L22.5813 28L22.6458 27.9355H22.5167H22.3877L22.4522 27.871L22.5813 27.8064L22.7103 27.7419L22.7748 27.6774H22.6458H22.5167L22.3877 27.7419H22.2587L22.1296 27.8064L22.0006 27.871H21.8716H21.7425C21.7425 27.9355 21.7425 28 21.7425 28.0645C21.7425 28.0645 21.7425 28.129 21.678 28.129C21.678 28.129 21.678 28.0645 21.6135 28.0645C21.549 28.0645 21.549 28.0645 21.549 28.129C21.4845 28.1935 21.3554 28.1935 21.2264 28.129C21.1619 28.129 21.0974 28.129 21.0329 28.129C20.9683 28.129 20.9038 28.0645 20.8393 28.0645L20.7103 28.129L20.5812 28.1935L20.5167 28.2581L20.4522 28.3226L20.3877 28.3871V28.4516V28.5161V28.5806V28.6452V28.7097V28.7742V28.8387V28.9032V28.9677V28.9032V28.8387L20.4522 28.7742H20.5167H20.5812H20.6458H20.7103H20.7748L20.9683 28.3226V28.3871H21.0329H21.0974H21.1619H21.2264L21.2909 28.3226H21.4845H21.678H21.8716H22.1296L22.3877 28.1935Z" fill="#FEC50C"/>
<path d="M34.2585 20.7742L34.194 20.7097H34.1295V20.6452H34.0005V20.7097H33.9359H33.8714L33.7424 20.9032L33.5488 21.0968L33.3553 21.2903L33.1617 21.4839L32.9037 21.6774L32.7101 21.871L32.5811 21.9355L32.5166 22L32.3876 22.0645H32.323L32.3876 22L32.4521 21.9355L32.5811 21.871L32.6456 21.7419L32.9037 21.4194L33.2263 21.0323L33.3553 20.8387L33.4843 20.6452L33.6134 20.4516L33.7424 20.2581L33.8714 20.0645L33.9359 19.9355L34.0005 19.8064L34.065 19.6774V19.6129V19.5484L34.0005 19.4839V19.4194H33.9359H33.8714H33.7424H33.6779H33.6134V19.4839L33.5488 19.5484L33.4843 19.6129L33.2908 19.8064L33.1617 20.0645L32.9682 20.3226L32.7747 20.6452L32.6456 20.7742L32.5166 20.9032L32.3876 21.0323L32.2585 21.0968L32.4521 20.8387L32.5811 20.4516L32.7101 20.3226L32.7747 20.129L32.8392 19.9355L32.9037 19.7419L32.9682 19.5484L33.0327 19.3548L33.0972 19.1613V18.9677L33.1617 18.7742V18.5806V18.5161V18.3871L33.0972 18.3226V18.2581V18.1935H33.0327V18.129H32.9682H32.9037H32.8392H32.7747L32.7101 18.1935L32.6456 18.4516L32.5811 18.7742L32.5166 19.0968L32.3876 19.3548L32.323 19.6774L32.194 19.9355V20.0645L32.1295 20.1935L32.065 20.3226L31.9359 20.4516L32.0005 20.1935L32.065 20V19.7419L32.1295 19.5484V19.4194V19.2258V19.1613V19.0323L32.065 18.9677V18.8387H32.0005V18.7742H31.9359H31.8714H31.8069L31.7424 18.8387L31.6779 19.0968L31.6134 19.4194L31.5488 19.6129L31.4843 19.871L31.3553 20.129L31.2908 20.3871L31.1617 20.6452L31.0327 20.9032L30.9682 21.0968L30.9037 21.2258L30.7747 21.4194L30.7101 21.5484L30.5811 21.7419L30.4521 21.871L30.323 22.0645L30.2585 22.1935L30.0005 22.4516L29.8069 22.7097L29.5488 22.9677L29.3553 23.2258L29.0972 23.4194L28.8392 23.6129L28.5811 23.871L28.323 24.0645L28.1295 24.129L27.9359 24.2581L27.7424 24.3871L27.5488 24.5161L27.2263 24.6452L26.9037 24.7742L26.5811 24.9032L26.2585 25.0323L26.0005 25.0968L25.7424 25.1613L25.4843 25.2258L25.1617 25.2903L24.9037 25.3548H24.6456L24.3876 25.4194H24.065L24.0005 25.4839L23.9359 25.5484L23.8069 25.6129L23.6779 25.7419L23.5488 25.871L23.4198 26.0645L23.2263 26.2581L23.0327 26.4516L22.9682 26.5161L22.8392 26.6452L22.7101 26.7097L22.6456 26.7742L22.5166 26.8387L22.4521 26.9032L22.323 26.9677L22.2585 27.0323L22.065 27.0968L21.8069 27.1613L21.6134 27.2258L21.4198 27.3548H21.3553L21.2908 27.4194H21.2263L21.1617 27.4839L21.0972 27.5484H21.0327V27.6129V27.6774V27.7419L21.2263 27.871V27.8064L21.3553 27.7419L21.4198 27.6774H21.4843L21.7424 27.5484L22.0005 27.4194H22.065L22.194 27.3548L22.2585 27.2903L22.3876 27.2258L22.5811 27.0968L22.7747 26.9677L22.9682 26.8387L23.1617 26.7097L23.2908 26.6452L23.3553 26.5161L23.4843 26.4516L23.6134 26.3226L23.6779 26.2581H23.7424L23.8069 26.1935L23.8714 26.129L24.0005 26.0645H24.1295L24.323 26L24.5811 25.9355L24.7747 25.871H25.0327L25.3553 25.8064L25.6779 25.7419H26.0005L26.323 25.6774H26.3876L26.5166 25.6129H26.6456L26.7101 25.5484L26.8392 25.4194L26.9682 25.2258L27.0972 25.1613L27.2263 25.0323L27.4198 24.9032L27.5488 24.7742L27.8069 24.6452L28.1295 24.5161L28.3876 24.3226L28.7101 24.1935L28.9682 24.0645L29.2263 23.9355L29.4198 23.871L29.5488 23.7419L29.6134 23.6129L29.6779 23.4839L29.7424 23.3548L29.8714 23.2258L29.9359 23.0968L30.065 22.9677L30.2585 22.7742L30.3876 22.6452L30.5811 22.4516L30.7101 22.3226L30.8392 22.2581L30.9037 22.1935L31.0327 22.129H31.0972L31.2263 22.0645L31.2908 22H31.4198H31.4843L31.6134 21.9355H31.6779H31.8069L31.9359 22L31.8714 22.0645V22.1935L31.8069 22.3226V22.3871L31.7424 22.5161L31.6779 22.6452L31.5488 22.7742L31.4198 22.9032H31.5488L31.6134 22.8387H31.6779H31.7424L31.8069 22.7742H31.8714H31.9359H32.0005V22.8387V22.9032V22.9677V23.0323L31.9359 23.0968L31.8714 23.1613V23.2258L31.6779 23.3548L31.4843 23.5484H31.6134L31.6779 23.6129H31.8069H31.9359L31.8069 23.7419L31.6779 23.8064L31.5488 23.871L31.4198 23.9355L31.2908 24.0645L31.0972 24.129L30.9682 24.1935L30.8392 24.3226H30.9037L30.9682 24.3871H31.0327H31.0972L30.9682 24.5161L30.7101 24.5806L30.6456 24.6452L30.5166 24.7097H30.4521V24.7742V24.8387V24.9032H30.5166V24.9677H30.4521V25.0323H30.3876L30.323 25.0968L30.2585 25.1613H30.1295L30.0005 25.2258H29.9359L29.8714 25.2903L30.065 25.4194L30.0005 25.4839L29.9359 25.5484H29.8714L29.8069 25.6129H29.7424H29.5488V25.6774L29.6134 25.8064V25.871V25.9355L29.4843 26.0645L29.2908 26.1935L29.0972 26.3226L28.8392 26.4516L28.7101 26.5161L28.5811 26.5806L28.4521 26.6452L28.323 26.7097L28.1295 26.7742H28.0005L27.8069 26.8387H27.6134H27.9359H28.194H28.5166H28.7101L28.9682 26.7742L29.1617 26.7097L29.3553 26.6452L29.5488 26.5806L29.7424 26.4516L30.0005 26.3226L30.2585 26.1935L30.4521 26.0645L30.323 26L30.194 25.9355L30.1295 25.871H30.065L30.0005 25.8064H29.8714L29.9359 25.7419L30.065 25.6774H30.1295L30.2585 25.6129H30.4521L30.7101 25.5484H30.9037H31.0327L31.0972 25.4839H31.1617H31.2263V25.4194H31.1617V25.3548H31.0327H30.9037H30.8392H30.7101L30.5811 25.2903H30.5166L30.7747 25.2258L30.9682 25.1613L31.2263 25.0968H31.3553L31.5488 25.0323L31.6779 24.9677H31.7424V24.9032H31.8069L31.8714 24.8387H31.8069H31.7424H31.6134H31.4843L31.3553 24.7742H31.2263H31.0972H31.0327L31.0972 24.7097H31.1617L31.3553 24.6452L31.5488 24.5806H31.7424L31.8714 24.5161L32.065 24.4516L32.194 24.3871L32.323 24.3226L32.3876 24.2581V24.1935H32.4521V24.129H32.3876H32.1295H32.0005H31.8714H31.8069L31.7424 24.0645L32.1295 23.871L32.4521 23.6129L32.7101 23.4839L32.9682 23.2903L33.0972 23.1613L33.1617 23.0968L33.2908 23.0323L33.3553 22.9032L33.4198 22.8387V22.7097L33.4843 22.6452V22.5161H33.4198H33.3553H33.2908L33.2263 22.5806L33.0327 22.6452L32.9037 22.7742H32.8392L32.7747 22.8387H32.6456L32.5811 22.9032H32.5166H32.4521H32.3876H32.323L32.5166 22.7097L32.7747 22.5161L33.0327 22.3226L33.2908 22L33.5488 21.7419L33.8069 21.4839L33.9359 21.2903L34.065 21.1613L34.1295 21.0323L34.2585 20.9032V20.8387V20.7742Z" fill="#FEC50C"/>
<path d="M34.258 20.7742L34.1935 20.7097H34.129V20.6452H33.9999V20.7097H33.9354H33.8709L33.7419 20.9032L33.5483 21.0968L33.3548 21.2903L33.1612 21.4839L32.9032 21.6774L32.7096 21.871L32.5806 21.9355L32.5161 22L32.387 22.0645H32.3225L32.387 22L32.4515 21.9355L32.5806 21.871L32.6451 21.7419L32.9032 21.4194L33.2257 21.0323L33.3548 20.8387L33.4838 20.6452L33.6128 20.4516L33.7419 20.2581L33.8709 20.0645L33.9354 19.9355L33.9999 19.8064L34.0644 19.6774V19.6129V19.5484L33.9999 19.4839V19.4194H33.9354H33.8709H33.7419H33.6774H33.6128V19.4839L33.5483 19.5484L33.4838 19.6129L33.2903 19.8064L33.1612 20.0645L32.9677 20.3226L32.7741 20.6452L32.6451 20.7742L32.5161 20.9032L32.387 21.0323L32.258 21.0968L32.4515 20.8387L32.5806 20.4516L32.7096 20.3226L32.7741 20.129L32.8386 19.9355L32.9032 19.7419L32.9677 19.5484L33.0322 19.3548L33.0967 19.1613V18.9677L33.1612 18.7742V18.5806V18.5161V18.3871L33.0967 18.3226V18.2581V18.1935H33.0322V18.129H32.9677H32.9032H32.8386H32.7741L32.7096 18.1935L32.6451 18.4516L32.5806 18.7742L32.5161 19.0968L32.387 19.3548L32.3225 19.6774L32.1935 19.9355V20.0645L32.129 20.1935L32.0645 20.3226L31.9354 20.4516L31.9999 20.1935L32.0645 20V19.7419L32.129 19.5484V19.4194V19.2258V19.1613V19.0323L32.0645 18.9677V18.8387H31.9999V18.7742H31.9354H31.8709H31.8064L31.7419 18.8387L31.6774 19.0968L31.6128 19.4194L31.5483 19.6129L31.4838 19.871L31.3548 20.129L31.2903 20.3871L31.1612 20.6452L31.0322 20.9032L30.9677 21.0968L30.9032 21.2258L30.7741 21.4194L30.7096 21.5484L30.5806 21.7419L30.4515 21.871L30.3225 22.0645L30.258 22.1935L29.9999 22.4516L29.8064 22.7097L29.5483 22.9677L29.3548 23.2258L29.0967 23.4193L28.8386 23.6129L28.5806 23.871L28.3225 24.0645L28.129 24.129L27.9354 24.2581L27.7419 24.3871L27.5483 24.5161L27.2257 24.6452L26.9032 24.7742L26.5806 24.9032L26.258 25.0323L26.0645 25.0968L26.6451 25.6129L26.7096 25.5484L26.8386 25.4194L26.9677 25.2258L27.0967 25.1613L27.2257 25.0323L27.4193 24.9032L27.5483 24.7742L27.8064 24.6452L28.129 24.5161L28.387 24.3226L28.7096 24.1935L28.9677 24.0645L29.2257 23.9355L29.4193 23.871L29.5483 23.7419L29.6128 23.6129L29.6774 23.4839L29.7419 23.3548L29.8709 23.2258L29.9354 23.0968L30.0645 22.9677L30.258 22.7742L30.387 22.6452L30.5806 22.4516L30.7096 22.3226L30.8386 22.2581L30.9032 22.1935L31.0322 22.129H31.0967L31.2257 22.0645L31.2903 22H31.4193H31.4838L31.6128 21.9355H31.6774H31.8064L31.9354 22L31.8709 22.0645V22.1935L31.8064 22.3226V22.3871L31.7419 22.5161L31.6774 22.6452L31.5483 22.7742L31.4193 22.9032H31.5483L31.6128 22.8387H31.6774H31.7419L31.8064 22.7742H31.8709H31.9354H31.9999V22.8387V22.9032V22.9677V23.0323L31.9354 23.0968L31.8709 23.1613V23.2258L31.6774 23.3548L31.4838 23.5484H31.6128L31.6774 23.6129H31.8064H31.9354L31.8064 23.7419L31.6774 23.8064L31.5483 23.871L31.4193 23.9355L31.2903 24.0645L31.0967 24.129L30.9677 24.1935L30.8386 24.3226H30.9032L30.9677 24.3871H31.0322H31.0967L30.9677 24.5161L30.7096 24.5806L30.6451 24.6452L30.5161 24.7097H30.4515V24.7742V24.8387V24.9032H30.5161V24.9677H30.4515V25.0323H30.387L30.3225 25.0968L30.258 25.1613H30.129L29.9999 25.2258H29.9354L29.8709 25.2903L30.0645 25.4194L29.9999 25.4839L29.9354 25.5484H29.8709L29.8064 25.6129H29.7419H29.5483V25.6774L29.6128 25.8064V25.871V25.9355L29.4838 26.0645L29.2903 26.1935L29.0967 26.3226L28.8386 26.4516L28.7096 26.5161L28.5806 26.5806L28.4515 26.6452L28.3225 26.7097L28.129 26.7742H28.0645L28.129 26.8387H28.1935H28.5161H28.7096L28.9677 26.7742L29.1612 26.7097L29.3548 26.6452L29.5483 26.5806L29.7419 26.4516L29.9999 26.3226L30.258 26.1935L30.4515 26.0645L30.3225 26L30.1935 25.9355L30.129 25.871H30.0645L29.9999 25.8064H29.8709L29.9354 25.7419L30.0645 25.6774H30.129L30.258 25.6129H30.4515L30.7096 25.5484H30.9032H31.0322L31.0967 25.4839H31.1612H31.2257V25.4194H31.1612V25.3548H31.0322H30.9032H30.8386H30.7096L30.5806 25.2903H30.5161L30.7741 25.2258L30.9677 25.1613L31.2257 25.0968H31.3548L31.5483 25.0323L31.6774 24.9677H31.7419V24.9032H31.8064L31.8709 24.8387H31.8064H31.7419H31.6128H31.4838L31.3548 24.7742H31.2257H31.0967H31.0322L31.0967 24.7097H31.1612L31.3548 24.6452L31.5483 24.5806H31.7419L31.8709 24.5161L32.0645 24.4516L32.1935 24.3871L32.3225 24.3226L32.387 24.2581V24.1935H32.4515V24.129H32.387H32.129H31.9999H31.8709H31.8064L31.7419 24.0645L32.129 23.871L32.4515 23.6129L32.7096 23.4839L32.9677 23.2903L33.0967 23.1613L33.1612 23.0968L33.2903 23.0323L33.3548 22.9032L33.4193 22.8387V22.7097L33.4838 22.6452V22.5161H33.4193H33.3548H33.2903L33.2257 22.5806L33.0322 22.6452L32.9032 22.7742H32.8386L32.7741 22.8387H32.6451L32.5806 22.9032H32.5161H32.4515H32.387H32.3225L32.5161 22.7097L32.7741 22.5161L33.0322 22.3226L33.2903 22L33.5483 21.7419L33.8064 21.4839L33.9354 21.2903L34.0644 21.1613L34.129 21.0323L34.258 20.9032V20.8387V20.7742Z" fill="#FCA110"/>
<path d="M28.7096 27.5484H28.3225L27.9354 27.4839H27.5483L27.2257 27.4193H27.0322L26.8386 27.4839H26.7096H26.5806V27.5484V27.6129V27.6774H26.5161V27.7419H26.4515V27.8064H26.3225H26.258L26.1935 27.871L26.3225 28L26.1935 28.129L26.129 28.1935L25.9999 28.2581L25.9354 28.3226L25.8064 28.3871H25.6774L25.5483 28.4516H25.3548H25.2257H25.0322L24.9032 28.5161H24.7096H24.0645H23.7419H23.4193H23.2257L23.0967 28.5806H22.9677L22.8386 28.6451H22.7096L22.5806 28.7097L22.4515 28.7742L22.3225 28.8387V28.9032L22.258 28.9677V29.0322H22.1935L22.129 29.0968V29.1613V29.2258L22.0645 29.2903L22.129 29.3548H22.1935H22.258L22.3225 29.2903H22.387H22.4515L22.5161 29.2258H22.5806L22.8386 29.0322L23.0967 28.9032L23.0322 29.2258L23.0967 29.2903V29.3548V29.4193H23.1612H23.2257L23.2903 29.3548H23.3548V29.2903L23.4838 29.1613L23.6128 29.0322L23.6774 28.9677L23.7419 28.8387L23.8064 28.9032V28.9677V29.0322V29.0968V29.2258L23.7419 29.2903V29.3548H23.8064V29.4193H23.8709H23.9354L23.9999 29.3548H24.0645L24.129 29.2903L24.1935 29.2258L24.258 29.0968L24.387 29.0322L24.4516 28.9677V28.9032H24.5161L24.5806 28.8387L24.5161 29.2903L24.5806 29.3548H24.6451H24.7096H24.7741H24.8386L24.9032 29.2903H24.9677L25.2257 28.9032L25.2903 28.9677V29.0322V29.0968L25.3548 29.1613V29.2258H25.4193V29.2903H25.4838H25.5483L25.6128 29.2258L25.6774 29.1613H25.7419V29.0968L25.8709 28.9677L25.9354 28.8387L26.0645 28.9677L26.129 29.0968H26.1935L26.258 29.1613V29.0968H26.3225H26.387L26.4515 29.0322L26.5161 28.9677L26.5806 28.9032L26.6451 28.8387L26.7096 28.7097L26.7741 28.6451H26.8386V28.7097V28.7742V28.8387H26.9032V28.9032H26.9677L27.0322 28.9677L27.0967 28.9032L27.1612 28.8387H27.2257V28.7742L27.3548 28.5806L27.4193 28.3871H27.4838L27.5483 28.4516L27.6774 28.5161L27.7419 28.5806H27.8064L27.8709 28.6451H27.9354H27.9999H28.0645L28.129 28.5806V28.5161H28.1935V28.4516V28.3871L28.258 28.3226V28.129V27.9355L28.3225 28L28.387 28.0645L28.5161 28.129L28.5806 28.1935H28.7096H28.7741H28.8386H28.9677H29.0322L29.1612 28.129L29.2257 28.0645L29.2903 28L29.3548 27.9355V27.871L29.4193 27.8064V27.7419V27.6129H29.0322L28.7096 27.5484Z" fill="#FEC50C"/>
<path d="M6.96782 15.9355C7.09685 15.6774 7.16137 15.5484 7.16137 15.2258C7.16137 14.7742 6.83879 14.4516 6.32266 14.3871C6.9033 14.3871 7.16137 14 7.16137 13.5484C7.16137 13.2903 7.09685 13.0968 6.96782 12.8387C6.96782 12.8387 6.00008 10.7742 5.61298 9.99999C5.54847 9.87095 5.54847 9.80644 5.54847 9.61289C5.54847 9.35483 5.80653 9.16128 6.06459 9.16128C6.32266 9.16128 6.58072 9.35483 6.58072 9.61289C6.58072 9.93547 6.38718 10.0645 6.25814 10.0645C6.06459 10.0645 6.00008 9.99999 6.00008 9.80644C6.00008 9.67741 6.06459 9.67741 6.12911 9.67741C6.32266 9.67741 6.25814 9.93547 6.25814 9.93547C6.32266 9.93547 6.38718 9.80644 6.38718 9.74192C6.45169 9.74192 6.51621 9.67741 6.58072 9.61289C6.51621 9.54837 6.45169 9.54837 6.38718 9.54837C6.45169 9.41934 6.38718 9.35483 6.25814 9.29031C6.25814 9.35483 6.25814 9.41934 6.25814 9.41934C6.06459 9.35483 5.80653 9.41934 5.80653 9.74192C5.80653 10.0645 6.00008 10.3226 6.45169 10.2581C6.32266 10.3226 6.32266 10.3871 6.32266 10.5161C6.38718 10.5161 6.45169 10.4516 6.45169 10.4516C6.38718 10.5161 6.32266 10.5806 6.32266 10.7742C6.38718 10.7097 6.45169 10.6451 6.58072 10.7097C6.45169 11.0322 6.64524 11.4193 7.09685 11.5484C6.9033 11.3548 6.83879 11.0968 6.83879 10.9032C6.83879 10.1935 7.03234 10.0645 7.03234 9.54837C7.03234 9.35483 6.9033 9.09676 6.70976 8.96773C6.83879 8.90321 6.96782 8.8387 6.96782 8.77418C6.83879 8.64515 6.77427 8.58063 6.64524 8.58063C6.83879 8.51612 7.03234 8.25805 7.03234 7.93547C7.03234 7.41934 6.83879 7.22579 6.83879 6.64515C6.83879 6.32257 7.09685 5.93547 7.09685 5.93547C6.64524 5.99999 6.45169 6.38708 6.51621 6.70966C6.45169 6.70966 6.38718 6.70966 6.32266 6.64515C6.25814 6.70966 6.32266 6.8387 6.38718 6.96773C6.32266 6.96773 6.25814 6.96773 6.19363 6.96773C6.19363 7.03225 6.25814 7.16128 6.38718 7.29031C6.00008 7.16128 5.74201 7.48386 5.74201 7.74192C5.74201 7.93547 5.87105 8.12902 6.06459 8.12902C6.12911 8.12902 6.19363 8.12902 6.25814 8.0645C6.25814 8.12902 6.25814 8.19354 6.25814 8.25805C6.38718 8.25805 6.45169 8.19353 6.38718 7.99999C6.45169 7.99999 6.51621 7.93547 6.58072 7.93547C6.51621 7.87095 6.45169 7.87095 6.38718 7.87095C6.45169 7.74192 6.38718 7.67741 6.25814 7.61289C6.25814 7.61289 6.32266 7.87095 6.12911 7.87095C6.06459 7.87095 6.00008 7.87095 6.00008 7.74192C6.00008 7.67741 6.06459 7.48386 6.25814 7.54837C6.45169 7.54837 6.58072 7.67741 6.58072 7.99999C6.58072 8.25805 6.32266 8.4516 6.06459 8.4516C5.80653 8.4516 5.61298 8.32257 5.61298 7.99999C5.61298 7.61289 6.12911 6.77418 6.12911 6.4516C6.12911 6.19354 5.93556 6.0645 5.6775 6.0645C5.54847 6.0645 5.41943 6.12902 5.2904 6.19354C5.22588 6.12902 5.09685 6.0645 4.9033 6.0645C4.70976 6.0645 4.45169 6.19354 4.45169 6.4516C4.45169 6.77418 4.96782 7.61289 4.96782 7.99999C4.96782 8.25805 4.77427 8.4516 4.51621 8.4516C4.19363 8.4516 4.00008 8.32257 4.00008 7.99999C4.00008 7.67741 4.12911 7.54837 4.32266 7.54837C4.51621 7.54837 4.58072 7.67741 4.58072 7.74192C4.58072 7.87095 4.51621 7.87095 4.45169 7.87095C4.25814 7.87095 4.32266 7.61289 4.32266 7.61289C4.19363 7.67741 4.12911 7.74192 4.19363 7.87095C4.12911 7.87095 4.06459 7.87095 4.00008 7.93547C4.06459 7.99999 4.12911 7.99999 4.19363 7.99999C4.12911 8.12902 4.19363 8.19354 4.32266 8.25805C4.32266 8.19354 4.25814 8.12902 4.32266 8.0645C4.38718 8.0645 4.45169 8.12902 4.51621 8.12902C4.64524 8.12902 4.83879 7.99999 4.83879 7.74192C4.83879 7.41934 4.58072 7.16128 4.19363 7.29031C4.32266 7.22579 4.38718 7.09676 4.38718 6.96773C4.32266 6.96773 4.25814 7.03225 4.19363 6.96773C4.25814 6.90321 4.32266 6.77418 4.25814 6.64515C4.19363 6.70966 4.12911 6.70966 4.06459 6.70966C4.19363 6.38708 3.93556 5.93547 3.48395 5.93547C3.48395 5.93547 3.74201 6.32257 3.74201 6.64515C3.74201 7.22579 3.54847 7.41934 3.54847 7.93547C3.54847 8.25805 3.74201 8.4516 3.93556 8.58063C3.74201 8.58063 3.6775 8.64515 3.61298 8.77418C3.6775 8.8387 3.74201 8.96773 3.87105 8.96773C3.6775 9.09676 3.54847 9.35483 3.54847 9.54837C3.54847 10.0645 3.74201 10.1935 3.74201 10.9032C3.74201 11.0968 3.6775 11.3548 3.48395 11.5484C4.00008 11.4193 4.12911 11.0322 4.00008 10.7097C4.12911 10.6451 4.19363 10.7097 4.25814 10.7742C4.25814 10.5806 4.19363 10.5161 4.12911 10.4516C4.12911 10.4516 4.19363 10.4516 4.25814 10.5161C4.25814 10.3871 4.19363 10.3226 4.12911 10.2581C4.51621 10.3226 4.77427 10.0645 4.77427 9.74192C4.77427 9.41934 4.51621 9.35483 4.32266 9.41934C4.32266 9.35483 4.32266 9.35483 4.32266 9.29031C4.19363 9.29031 4.12911 9.35483 4.19363 9.54837C4.12911 9.54837 4.06459 9.61289 4.00008 9.61289C4.06459 9.67741 4.12911 9.67741 4.19363 9.74192C4.12911 9.87095 4.19363 9.93547 4.32266 9.93547C4.32266 9.93547 4.25814 9.67741 4.45169 9.67741C4.51621 9.67741 4.58072 9.74192 4.58072 9.80644C4.58072 9.93547 4.51621 10.0645 4.32266 10.0645C4.12911 10.0645 4.00008 9.93547 4.00008 9.61289C4.00008 9.35483 4.25814 9.16128 4.51621 9.16128C4.77427 9.16128 5.03234 9.35483 5.03234 9.61289C5.03234 9.80644 5.03234 9.87095 4.96782 9.99999C4.58072 10.7742 3.61298 12.8387 3.61298 12.8387C3.48395 13.0968 3.41943 13.2258 3.41943 13.5484C3.41943 14 3.74201 14.3226 4.25814 14.3871C3.6775 14.3871 3.41943 14.7742 3.41943 15.2258C3.41943 15.4839 3.48395 15.6774 3.61298 15.9355C3.61298 15.9355 4.58072 18 4.96782 18.7742C5.03234 18.9032 5.03234 18.9677 5.03234 19.1613C5.03234 19.4193 4.77427 19.6129 4.51621 19.6129C4.25814 19.6129 4.00008 19.4193 4.00008 19.1613C4.00008 18.8387 4.19363 18.7097 4.32266 18.7097C4.51621 18.7097 4.58072 18.7742 4.58072 18.9677C4.58072 19.0968 4.51621 19.0968 4.45169 19.0968C4.25814 19.0968 4.32266 18.8387 4.32266 18.8387C4.25814 18.8387 4.19363 18.9677 4.19363 19.0322C4.12911 19.0322 4.06459 19.0968 4.00008 19.1613C4.06459 19.2258 4.12911 19.2258 4.19363 19.2258C4.12911 19.3548 4.19363 19.4193 4.32266 19.4839C4.32266 19.4193 4.32266 19.3548 4.32266 19.3548C4.51621 19.4193 4.77427 19.3548 4.77427 19.0322C4.77427 18.7097 4.58072 18.4516 4.12911 18.5161C4.25814 18.4516 4.25814 18.3871 4.25814 18.258C4.19363 18.258 4.12911 18.3226 4.12911 18.3226C4.19363 18.2581 4.25814 18.1935 4.25814 18C4.19363 18.0645 4.12911 18.129 4.00008 18.0645C4.12911 17.7419 3.93556 17.3548 3.48395 17.2258C3.6775 17.4193 3.74201 17.6774 3.74201 17.871C3.74201 18.5806 3.54847 18.7097 3.54847 19.2258C3.54847 19.4193 3.6775 19.6774 3.87105 19.8064C3.74201 19.871 3.61298 19.9355 3.61298 20C3.6775 20.0645 3.74201 20.1935 3.87105 20.1935C3.6775 20.3226 3.54847 20.5806 3.54847 20.7742C3.54847 21.2903 3.74201 21.4193 3.74201 22.129C3.74201 22.3226 3.6775 22.5806 3.48395 22.7742C4.00008 22.6451 4.12911 22.2581 4.00008 21.9355C4.12911 21.871 4.19363 21.9355 4.25814 22C4.25814 21.8064 4.19363 21.7419 4.12911 21.6774C4.12911 21.6774 4.19363 21.6774 4.25814 21.7419C4.25814 21.6129 4.19363 21.5484 4.12911 21.4839C4.51621 21.5484 4.77427 21.2903 4.77427 20.9677C4.77427 20.6451 4.51621 20.5806 4.32266 20.6451C4.32266 20.5806 4.32266 20.5806 4.32266 20.5161C4.19363 20.5161 4.12911 20.5806 4.19363 20.7742C4.12911 20.7742 4.06459 20.8387 4.00008 20.8387C4.06459 20.9032 4.12911 20.9032 4.19363 20.9677C4.12911 21.0968 4.19363 21.1613 4.32266 21.1613C4.32266 21.1613 4.25814 20.9032 4.45169 20.9032C4.51621 20.9032 4.58072 20.9677 4.58072 21.0322C4.58072 21.1613 4.51621 21.2903 4.32266 21.2903C4.12911 21.2903 4.00008 21.1613 4.00008 20.8387C4.00008 20.5806 4.25814 20.3871 4.51621 20.3871C4.77427 20.3871 5.03234 20.5806 5.03234 20.8387C5.03234 21.0322 5.03234 21.0968 4.96782 21.2258C4.58072 22 3.61298 24.0645 3.61298 24.0645C3.48395 24.3226 3.41943 24.4516 3.41943 24.7742C3.41943 25.2258 3.74201 25.5484 4.25814 25.6129C3.6775 25.6129 3.41943 26 3.41943 26.4516C3.41943 26.7097 3.48395 26.9032 3.61298 27.1613C3.61298 27.1613 4.58072 29.2258 4.96782 30C5.03234 30.129 5.03234 30.1935 5.03234 30.3871C5.03234 30.6451 4.77427 30.8387 4.51621 30.8387C4.25814 30.8387 4.00008 30.6451 4.00008 30.3871C4.00008 30.0645 4.19363 29.9355 4.32266 29.9355C4.51621 29.9355 4.58072 30 4.58072 30.1935C4.58072 30.3226 4.51621 30.3226 4.45169 30.3226C4.25814 30.3226 4.32266 30.0645 4.32266 30.0645C4.25814 30.0645 4.19363 30.1935 4.19363 30.2581C4.12911 30.2581 4.06459 30.3226 4.00008 30.3871C4.06459 30.4516 4.12911 30.4516 4.19363 30.4516C4.12911 30.5806 4.19363 30.6451 4.32266 30.7097C4.32266 30.6451 4.32266 30.5806 4.32266 30.5806C4.51621 30.6451 4.77427 30.5806 4.77427 30.2581C4.77427 29.9355 4.58072 29.6774 4.12911 29.7419C4.25814 29.6774 4.25814 29.6129 4.25814 29.4839C4.19363 29.4839 4.12911 29.5484 4.12911 29.5484C4.19363 29.4839 4.25814 29.4193 4.25814 29.2258C4.19363 29.2903 4.12911 29.3548 4.00008 29.2903C4.12911 28.9677 3.93556 28.5806 3.48395 28.4516C3.6775 28.6451 3.74201 28.9032 3.74201 29.0968C3.74201 29.8064 3.54847 29.9355 3.54847 30.4516C3.54847 30.6451 3.6775 30.9032 3.87105 31.0322C3.74201 31.0968 3.61298 31.1613 3.61298 31.2258C3.74201 31.3548 3.80653 31.4193 3.93556 31.4193C3.74201 31.4839 3.54847 31.7419 3.54847 32.0645C3.54847 32.5806 3.74201 32.7742 3.74201 33.3548C3.74201 33.6774 3.48395 34.0645 3.48395 34.0645C3.93556 34 4.12911 33.6129 4.06459 33.2903C4.12911 33.2903 4.19363 33.2903 4.25814 33.3548C4.25814 33.2903 4.25814 33.1613 4.19363 33.0322C4.25814 33.0322 4.32266 33.0322 4.38718 33.0322C4.38718 32.9677 4.32266 32.8387 4.19363 32.7097C4.58072 32.8387 4.83879 32.5161 4.83879 32.258C4.83879 32.0645 4.70976 31.871 4.51621 31.871C4.45169 31.871 4.38718 31.871 4.32266 31.9355C4.32266 31.871 4.32266 31.8064 4.32266 31.7419C4.19363 31.7419 4.12911 31.8064 4.19363 32C4.12911 32 4.06459 32.0645 4.00008 32.0645C4.06459 32.129 4.12911 32.129 4.19363 32.129C4.12911 32.258 4.19363 32.3226 4.32266 32.3871C4.32266 32.3871 4.25814 32.129 4.45169 32.129C4.51621 32.129 4.58072 32.129 4.58072 32.258C4.58072 32.3226 4.51621 32.5161 4.32266 32.4516C4.12911 32.4516 4.00008 32.3226 4.00008 32C4.00008 31.7419 4.25814 31.5484 4.51621 31.5484C4.77427 31.5484 4.96782 31.6774 4.96782 32C4.96782 32.3871 4.45169 33.2258 4.45169 33.5484C4.45169 33.8064 4.64524 33.9355 4.9033 33.9355C5.03234 33.9355 5.16137 33.871 5.2904 33.8064C5.35492 33.871 5.48395 33.9355 5.6775 33.9355C5.87105 33.9355 6.12911 33.8064 6.12911 33.5484C6.12911 33.2258 5.61298 32.3871 5.61298 32C5.61298 31.7419 5.80653 31.5484 6.06459 31.5484C6.38718 31.5484 6.58072 31.6774 6.58072 32C6.58072 32.3226 6.45169 32.4516 6.25814 32.4516C6.06459 32.4516 6.00008 32.3226 6.00008 32.258C6.00008 32.129 6.06459 32.129 6.12911 32.129C6.32266 32.129 6.25814 32.3871 6.25814 32.3871C6.38718 32.3226 6.45169 32.258 6.38718 32.129C6.45169 32.129 6.51621 32.129 6.58072 32.0645C6.51621 32 6.45169 32 6.38718 32C6.45169 31.871 6.38718 31.8064 6.25814 31.7419C6.25814 31.8064 6.32266 31.871 6.25814 31.9355C6.19363 31.9355 6.12911 31.871 6.06459 31.871C5.93556 31.871 5.74201 32 5.74201 32.258C5.74201 32.5806 6.00008 32.8387 6.38718 32.7097C6.25814 32.7742 6.19363 32.9032 6.19363 33.0322C6.25814 33.0322 6.32266 32.9677 6.38718 33.0322C6.32266 33.0968 6.25814 33.2258 6.32266 33.3548C6.38718 33.2903 6.45169 33.2903 6.51621 33.2903C6.38718 33.6129 6.58072 34.0645 7.09685 34.0645C7.09685 34.0645 6.83879 33.6774 6.83879 33.3548C6.83879 32.7742 7.03234 32.5806 7.03234 32.0645C7.03234 31.7419 6.83879 31.5484 6.64524 31.4193C6.83879 31.4193 6.9033 31.3548 6.96782 31.2258C6.9033 31.1613 6.83879 31.0322 6.70976 31.0322C6.9033 30.9032 7.03234 30.6451 7.03234 30.4516C7.03234 29.9355 6.83879 29.8064 6.83879 29.0968C6.83879 28.9032 6.9033 28.6451 7.09685 28.4516C6.58072 28.5806 6.45169 28.9677 6.58072 29.2903C6.45169 29.3548 6.38718 29.2903 6.32266 29.2258C6.32266 29.4193 6.38718 29.4839 6.45169 29.5484C6.45169 29.5484 6.38718 29.5484 6.32266 29.4839C6.32266 29.6129 6.38718 29.6774 6.45169 29.7419C6.06459 29.6774 5.80653 29.9355 5.80653 30.2581C5.80653 30.5806 6.06459 30.6451 6.25814 30.5806C6.25814 30.6451 6.25814 30.6451 6.25814 30.7097C6.38718 30.7097 6.45169 30.6451 6.38718 30.4516C6.45169 30.4516 6.51621 30.3871 6.58072 30.3871C6.51621 30.3226 6.45169 30.3226 6.38718 30.2581C6.45169 30.129 6.38718 30.0645 6.25814 30.0645C6.25814 30.0645 6.32266 30.3226 6.12911 30.3226C6.06459 30.3226 6.00008 30.258 6.00008 30.1935C6.00008 30.0645 6.06459 29.9355 6.25814 29.9355C6.45169 29.9355 6.58072 30.0645 6.58072 30.3871C6.58072 30.6451 6.32266 30.8387 6.06459 30.8387C5.80653 30.8387 5.54847 30.6451 5.54847 30.3871C5.54847 30.1935 5.54847 30.129 5.61298 30C6.00008 29.2258 6.96782 27.1613 6.96782 27.1613C7.09685 26.9032 7.16137 26.7742 7.16137 26.4516C7.16137 26 6.83879 25.6774 6.32266 25.6129C6.9033 25.6129 7.16137 25.2258 7.16137 24.7742C7.16137 24.5161 7.09685 24.3226 6.96782 24.0645C6.96782 24.0645 6.00008 22 5.61298 21.2258C5.54847 21.0968 5.54847 21.0322 5.54847 20.8387C5.54847 20.5806 5.80653 20.3871 6.06459 20.3871C6.32266 20.3871 6.58072 20.5806 6.58072 20.8387C6.58072 21.1613 6.38718 21.2903 6.25814 21.2903C6.06459 21.2903 6.00008 21.2258 6.00008 21.0322C6.00008 20.9032 6.06459 20.9032 6.12911 20.9032C6.32266 20.9032 6.25814 21.1613 6.25814 21.1613C6.32266 21.1613 6.38718 21.0322 6.38718 20.9677C6.45169 20.9677 6.51621 20.9032 6.58072 20.8387C6.51621 20.7742 6.45169 20.7742 6.38718 20.7742C6.45169 20.6451 6.38718 20.5806 6.25814 20.5161C6.25814 20.5806 6.25814 20.6451 6.25814 20.6451C6.06459 20.5806 5.80653 20.7097 5.80653 20.9677C5.80653 21.2903 6.00008 21.5484 6.45169 21.4839C6.32266 21.5484 6.32266 21.6129 6.32266 21.7419C6.38718 21.7419 6.45169 21.6774 6.45169 21.6774C6.38718 21.7419 6.32266 21.8064 6.32266 22C6.38718 21.9355 6.45169 21.871 6.58072 21.9355C6.45169 22.2581 6.64524 22.6451 7.09685 22.7742C6.9033 22.5806 6.83879 22.3226 6.83879 22.129C6.83879 21.4193 7.03234 21.2903 7.03234 20.7742C7.03234 20.5806 6.9033 20.3226 6.70976 20.1935C6.83879 20.129 6.96782 20.0645 6.96782 20C6.9033 19.9355 6.83879 19.8064 6.70976 19.8064C6.9033 19.6774 7.03234 19.4193 7.03234 19.2258C7.03234 18.7097 6.83879 18.5806 6.83879 17.871C6.83879 17.6774 6.9033 17.4193 7.09685 17.2258C6.58072 17.3548 6.45169 17.7419 6.58072 18.0645C6.45169 18.129 6.38718 18.0645 6.32266 18C6.32266 18.1935 6.38718 18.2581 6.45169 18.3226C6.45169 18.3226 6.38718 18.3226 6.32266 18.258C6.32266 18.3871 6.38718 18.4516 6.45169 18.5161C6.06459 18.4516 5.80653 18.7097 5.80653 19.0322C5.80653 19.3548 6.06459 19.4193 6.25814 19.3548C6.25814 19.4193 6.25814 19.4193 6.25814 19.4839C6.38718 19.4839 6.45169 19.4193 6.38718 19.2258C6.45169 19.2258 6.51621 19.1613 6.58072 19.1613C6.51621 19.0968 6.45169 19.0968 6.38718 19.0322C6.45169 18.9032 6.38718 18.8387 6.25814 18.8387C6.25814 18.8387 6.32266 19.0968 6.12911 19.0968C6.06459 19.0968 6.00008 19.0322 6.00008 18.9677C6.00008 18.8387 6.06459 18.7097 6.25814 18.7097C6.45169 18.7097 6.58072 18.8387 6.58072 19.1613C6.58072 19.4193 6.32266 19.6129 6.06459 19.6129C5.80653 19.6129 5.54847 19.4193 5.54847 19.1613C5.54847 18.9677 5.54847 18.9032 5.61298 18.7742C6.00008 18 6.96782 15.9355 6.96782 15.9355ZM5.2904 15.0968C5.16137 14.7097 4.77427 14.5161 4.45169 14.4516C4.77427 14.3871 5.16137 14.1935 5.2904 13.8064C5.41943 14.1935 5.80653 14.3871 6.12911 14.4516C5.80653 14.5161 5.41943 14.7097 5.2904 15.0968ZM4.9033 6.64515C5.03234 6.51612 5.2904 6.77418 5.2904 6.77418C5.2904 6.77418 5.61298 6.51612 5.6775 6.64515C5.80653 6.77418 5.48395 7.41934 5.2904 7.80644C5.09685 7.35483 4.77427 6.77418 4.9033 6.64515ZM4.70976 8.96773H4.64524C4.9033 8.90321 5.16137 8.77418 5.2904 8.58063C5.41943 8.77418 5.61298 8.90321 5.93556 8.96773H5.87105C5.54847 9.03224 5.35492 9.22579 5.2904 9.35483C5.22588 9.22579 5.03234 9.03224 4.70976 8.96773ZM3.80653 13.6129C3.80653 13.4839 3.87105 13.3548 3.93556 13.2258C4.19363 12.6451 5.09685 10.7097 5.35492 10.2581C5.54847 10.6451 6.45169 12.5806 6.77427 13.2258C6.83879 13.3548 6.83879 13.4839 6.83879 13.6129C6.83879 14 6.51621 14.129 6.32266 14.129C6.06459 14.129 5.87105 13.9355 5.87105 13.7419C5.87105 13.6129 5.93556 13.5484 6.06459 13.5484C6.32266 13.5484 6.32266 13.7419 6.25814 13.9355C6.45169 13.871 6.51621 13.7419 6.51621 13.6129C6.58072 13.6129 6.70976 13.5484 6.77427 13.4839C6.70976 13.4193 6.64524 13.3548 6.51621 13.3548C6.58072 13.1613 6.45169 13.0322 6.25814 13.0322C6.32266 13.1613 6.32266 13.3548 6.06459 13.3548C5.87105 13.3548 5.74201 13.4193 5.61298 13.4839C5.61298 13.2903 5.61298 12.6451 5.61298 12.6451C5.61298 12.3871 5.93556 12.3871 6.19363 12.4516C6.12911 12.1935 5.93556 12 5.54847 12.0645C5.61298 12 5.74201 11.9355 5.74201 11.7419C5.74201 11.4839 5.54847 11.2258 5.41943 11.1613C5.2904 11.2258 5.09685 11.4839 5.09685 11.7419C5.09685 11.9355 5.22588 12 5.2904 12.0645C4.9033 12 4.70976 12.1935 4.64524 12.4516C4.83879 12.3871 5.22589 12.3871 5.22589 12.6451C5.22589 12.6451 5.22589 13.2903 5.22589 13.4839C5.16137 13.3548 4.96782 13.3548 4.77427 13.3548C4.51621 13.3548 4.51621 13.1613 4.58072 13.0322C4.45169 13.0968 4.32266 13.1613 4.32266 13.3548C4.19363 13.3548 4.12911 13.4193 4.06459 13.4839C4.00008 13.4193 4.06459 13.4839 4.19363 13.4839C4.19363 13.6129 4.25814 13.7419 4.45169 13.8064C4.38718 13.6774 4.32266 13.4839 4.58072 13.4839C4.70976 13.4839 4.77427 13.5484 4.77427 13.6774C4.77427 13.871 4.51621 14.0645 4.32266 14.0645C4.12911 14.129 3.80653 14 3.80653 13.6129ZM5.2904 24.7742C5.41943 25.1613 5.80653 25.3548 6.12911 25.4193C5.80653 25.4839 5.41943 25.6774 5.2904 26.0645C5.16137 25.6774 4.77427 25.4839 4.45169 25.4193C4.77427 25.3548 5.16137 25.1613 5.2904 24.7742ZM5.6775 33.2258C5.54847 33.3548 5.2904 33.0968 5.2904 33.0968C5.2904 33.0968 4.96782 33.3548 4.9033 33.2258C4.77427 33.0968 5.09685 32.4516 5.2904 32.0645C5.41943 32.5161 5.80653 33.0968 5.6775 33.2258ZM5.80653 30.9032H5.87105C5.61298 30.9677 5.35492 31.0968 5.22589 31.2903C5.09685 31.0968 4.9033 30.9677 4.58072 30.9032H4.64524C4.96782 30.8387 5.16137 30.6451 5.22589 30.5161C5.35492 30.6451 5.54847 30.8387 5.80653 30.9032ZM6.77427 26.2581C6.77427 26.3871 6.70976 26.5161 6.70976 26.6451C6.45169 27.2258 5.48395 29.1613 5.2904 29.6129C5.09685 29.2258 4.19363 27.2903 3.87105 26.6451C3.80653 26.5161 3.74201 26.3871 3.74201 26.2581C3.74201 25.871 4.06459 25.7419 4.25814 25.7419C4.51621 25.7419 4.70976 25.9355 4.70976 26.129C4.70976 26.2581 4.64524 26.3226 4.51621 26.3226C4.25814 26.3226 4.25814 26.129 4.32266 25.9355C4.12911 26 4.06459 26.129 4.06459 26.2581C4.00008 26.2581 3.87105 26.3226 3.80653 26.3871C3.87105 26.4516 3.93556 26.5161 4.06459 26.5161C4.00008 26.7097 4.12911 26.8387 4.32266 26.8387C4.25814 26.7097 4.25814 26.5161 4.51621 26.5161C4.70976 26.5161 4.83879 26.4516 4.96782 26.3871C4.96782 26.5806 4.96782 27.2258 4.96782 27.2258C4.96782 27.4839 4.64524 27.4839 4.38718 27.4193C4.45169 27.6774 4.64524 27.871 5.03234 27.8064C4.96782 27.871 4.83879 27.9355 4.83879 28.129C4.83879 28.3871 5.03234 28.6451 5.16137 28.7097C5.2904 28.6451 5.48395 28.3871 5.48395 28.129C5.48395 27.9355 5.35492 27.871 5.2904 27.8064C5.6775 27.871 5.87105 27.6774 5.93556 27.4193C5.74201 27.4839 5.35492 27.4839 5.35492 27.2258C5.35492 27.2258 5.35492 26.5806 5.35492 26.3871C5.41943 26.5161 5.61298 26.5161 5.80653 26.5161C6.06459 26.5161 6.06459 26.7097 6.00008 26.8387C6.12911 26.7742 6.25814 26.7097 6.25814 26.5161C6.38718 26.5161 6.45169 26.4516 6.51621 26.3871C6.51621 26.4516 6.45169 26.3871 6.38718 26.3871C6.38718 26.2581 6.32266 26.129 6.12911 26.0645C6.19363 26.1935 6.19363 26.4516 5.93556 26.4516C5.80653 26.4516 5.74201 26.3871 5.74201 26.2581C5.74201 26.0645 6.00008 25.871 6.19363 25.871C6.38718 25.7419 6.77427 25.871 6.77427 26.2581ZM6.64524 24.129C6.70976 24.2581 6.70976 24.3871 6.70976 24.5161C6.70976 24.9032 6.38718 25.0322 6.19363 25.0322C5.93556 25.0322 5.74201 24.8387 5.74201 24.6451C5.74201 24.5161 5.80653 24.4516 5.93556 24.4516C6.19363 24.4516 6.19363 24.6451 6.12911 24.8387C6.32266 24.7742 6.38718 24.6451 6.38718 24.5161C6.45169 24.5161 6.58072 24.4516 6.64524 24.3871C6.58072 24.3226 6.51621 24.258 6.38718 24.258C6.45169 24.0645 6.32266 23.9355 6.12911 23.9355C6.19363 24.0645 6.19363 24.258 5.93556 24.258C5.74201 24.258 5.61298 24.3226 5.48395 24.3871C5.48395 24.1935 5.48395 23.5484 5.48395 23.5484C5.48395 23.2903 5.80653 23.2903 6.06459 23.3548C6.00008 23.0968 5.80653 22.9032 5.41943 22.9677C5.48395 22.9032 5.61298 22.8387 5.61298 22.6451C5.61298 22.3871 5.41943 22.129 5.2904 22.0645C5.16137 22.129 4.96782 22.3871 4.96782 22.6451C4.96782 22.8387 5.09685 22.9032 5.16137 22.9677C4.77427 22.9032 4.58072 23.0968 4.51621 23.3548C4.70976 23.2903 5.09685 23.2903 5.09685 23.5484C5.09685 23.5484 5.09685 24.1935 5.09685 24.3871C5.03234 24.258 4.83879 24.258 4.64524 24.258C4.38718 24.258 4.38718 24.0645 4.45169 23.9355C4.32266 24 4.19363 24.0645 4.19363 24.258C4.06459 24.258 4.00008 24.3226 3.93556 24.3871C4.00008 24.3871 4.06459 24.4516 4.19363 24.4516C4.19363 24.5806 4.25814 24.7097 4.45169 24.7742C4.38718 24.6451 4.32266 24.4516 4.58072 24.4516C4.70976 24.4516 4.77427 24.5161 4.77427 24.6451C4.77427 24.8387 4.51621 25.0322 4.32266 25.0322C4.12911 25.0322 3.80653 24.9032 3.80653 24.5161C3.80653 24.3871 3.87105 24.2581 3.93556 24.129C4.19363 23.5484 5.09685 21.6129 5.35492 21.1613C5.48395 21.6129 6.38718 23.5484 6.64524 24.129ZM5.80653 19.9355C5.80653 19.9355 5.87105 19.9355 5.80653 19.9355C5.87105 19.9355 5.80653 19.9355 5.80653 19.9355C5.48395 20 5.2904 20.1935 5.22589 20.3226C5.16137 20.1935 4.96782 20 4.64524 19.9355C4.64524 19.9355 4.64524 19.9355 4.58072 19.9355C4.58072 19.9355 4.58072 19.9355 4.64524 19.9355C4.96782 19.871 5.16137 19.6774 5.22589 19.5484C5.35492 19.6774 5.54847 19.871 5.80653 19.9355ZM5.2904 18.6451C5.09685 18.2581 4.19363 16.3226 3.87105 15.6774C3.80653 15.5484 3.74201 15.4193 3.74201 15.2903C3.74201 14.9032 4.06459 14.7742 4.25814 14.7742C4.51621 14.7742 4.70976 14.9677 4.70976 15.1613C4.70976 15.2903 4.64524 15.3548 4.51621 15.3548C4.25814 15.3548 4.25814 15.1613 4.32266 14.9677C4.12911 15.0322 4.06459 15.1613 4.06459 15.2903C4.00008 15.2903 3.87105 15.3548 3.80653 15.4193C3.87105 15.4839 3.93556 15.5484 4.06459 15.5484C4.00008 15.7419 4.12911 15.871 4.32266 15.871C4.25814 15.7419 4.25814 15.5484 4.51621 15.5484C4.70976 15.5484 4.83879 15.4839 4.96782 15.4193C4.96782 15.6129 4.96782 16.2581 4.96782 16.2581C4.96782 16.5161 4.64524 16.5161 4.38718 16.4516C4.45169 16.7097 4.64524 16.9032 5.03234 16.8387C4.96782 16.9032 4.83879 16.9677 4.83879 17.1613C4.83879 17.4193 5.03234 17.6774 5.16137 17.7419C5.2904 17.6774 5.48395 17.4193 5.48395 17.1613C5.48395 16.9677 5.35492 16.9032 5.2904 16.8387C5.6775 16.9032 5.87105 16.7097 5.93556 16.4516C5.74201 16.5161 5.35492 16.5161 5.35492 16.2581C5.35492 16.2581 5.35492 15.6129 5.35492 15.4193C5.41943 15.5484 5.61298 15.5484 5.80653 15.5484C6.06459 15.5484 6.06459 15.7419 6.00008 15.871C6.12911 15.8064 6.25814 15.7419 6.25814 15.5484C6.38718 15.5484 6.45169 15.4839 6.51621 15.4193C6.51621 15.4839 6.45169 15.4193 6.38718 15.4193C6.38718 15.2903 6.32266 15.1613 6.12911 15.0968C6.19363 15.2258 6.19363 15.4839 5.93556 15.4839C5.80653 15.4839 5.74201 15.4193 5.74201 15.2903C5.74201 15.0968 6.00008 14.9032 6.19363 14.9032C6.38718 14.9032 6.70976 15.0322 6.70976 15.4193C6.70976 15.5484 6.64524 15.6774 6.64524 15.8064C6.38718 16.3226 5.48395 18.2581 5.2904 18.6451Z" fill="#FEC50C"/>
<path d="M5.74176 29.7419C5.74176 29.8065 5.67725 29.871 5.67725 29.9355C5.67725 30.2581 5.93531 30.3226 6.12886 30.2581C6.12886 30.3226 6.12886 30.3226 6.12886 30.3871C6.25789 30.3871 6.32241 30.3226 6.25789 30.129C6.32241 30.129 6.38692 30.0645 6.45144 30.0645C6.38692 30 6.32241 30 6.25789 29.9355C6.32241 29.8065 6.25789 29.7419 6.12886 29.7419C6.12886 29.7419 6.19338 30 5.99983 30C5.93531 30 5.87079 29.9355 5.87079 29.871C5.87079 29.8065 5.87079 29.8065 5.93531 29.7419H5.74176Z" fill="#FCA110"/>
<path d="M6.90318 31.6774C6.90318 31.3548 6.70963 31.1613 6.51608 31.0323C6.70963 31.0323 6.77415 30.9677 6.83866 30.8387C6.77415 30.7742 6.70963 30.6452 6.5806 30.6452C6.77415 30.5161 6.90318 30.2581 6.90318 30.0645C6.90318 29.9355 6.90318 29.8065 6.83866 29.7419H6.38705C6.45157 29.8065 6.51608 29.9355 6.51608 30.0645C6.51608 30.3226 6.25802 30.5161 5.99995 30.5161C5.74189 30.5161 5.48382 30.3226 5.48382 30.0645C5.48382 29.9355 5.48382 29.8065 5.54834 29.6774H4.90318C4.96769 29.7419 4.96769 29.871 4.96769 30.0645C4.96769 30.3226 4.70963 30.5161 4.45157 30.5161C4.1935 30.5161 3.93544 30.3226 3.93544 30.0645C3.93544 29.871 3.99995 29.8065 4.06447 29.7419H3.67737C3.67737 29.871 3.61286 29.9355 3.61286 30.0645C3.61286 30.2581 3.74189 30.5161 3.93544 30.6452C3.8064 30.7097 3.67737 30.7742 3.67737 30.8387C3.8064 30.9677 3.87092 31.0323 3.99995 31.0323C3.8064 31.0968 3.61286 31.3548 3.61286 31.6774C3.61286 32.1936 3.8064 32.3871 3.8064 32.9677C3.8064 33.2258 3.61286 33.6129 3.54834 33.6774C3.99995 33.6129 4.1935 33.2258 4.06447 32.9032C4.12899 32.9032 4.1935 32.9032 4.25802 32.9677C4.25802 32.9032 4.25802 32.7742 4.1935 32.6452C4.25802 32.6452 4.32253 32.6452 4.38705 32.6452C4.38705 32.5806 4.32253 32.4516 4.1935 32.3226C4.5806 32.4516 4.83866 32.129 4.83866 31.871C4.83866 31.6774 4.70963 31.4839 4.51608 31.4839C4.45157 31.4839 4.38705 31.4839 4.32253 31.5484C4.32253 31.4839 4.32253 31.4194 4.32253 31.3548C4.1935 31.3548 4.12898 31.4194 4.1935 31.6129C4.12898 31.6129 4.06447 31.6774 3.99995 31.6774C4.06447 31.7419 4.12898 31.7419 4.1935 31.7419C4.12898 31.871 4.1935 31.9355 4.32253 32C4.32253 32 4.25802 31.7419 4.45157 31.7419C4.51608 31.7419 4.5806 31.7419 4.5806 31.871C4.5806 31.9355 4.51608 32.129 4.32253 32.0645C4.12898 32.0645 3.99995 31.9355 3.99995 31.6129C3.99995 31.3548 4.25802 31.1613 4.51608 31.1613C4.77415 31.1613 4.96769 31.2903 4.96769 31.6129C4.96769 32 4.45157 32.8387 4.45157 33.1613C4.45157 33.4194 4.64511 33.5484 4.90318 33.5484C5.03221 33.5484 5.16124 33.4839 5.29028 33.4194C5.35479 33.4839 5.48382 33.5484 5.67737 33.5484C5.87092 33.5484 6.12898 33.4194 6.12898 33.1613C6.12898 32.8387 5.61286 32 5.61286 31.6129C5.61286 31.3548 5.8064 31.1613 6.06447 31.1613C6.38705 31.1613 6.5806 31.2903 6.5806 31.6129C6.5806 31.9355 6.45157 32.0645 6.25802 32.0645C6.06447 32.0645 5.99995 31.9355 5.99995 31.871C5.99995 31.7419 6.06447 31.7419 6.12898 31.7419C6.32253 31.7419 6.25802 32 6.25802 32C6.38705 31.9355 6.45157 31.871 6.38705 31.7419C6.45157 31.7419 6.51608 31.7419 6.5806 31.6774C6.51608 31.6129 6.45157 31.6129 6.38705 31.6129C6.45157 31.4839 6.38705 31.4194 6.25802 31.3548C6.25802 31.4194 6.32253 31.4839 6.25802 31.5484C6.1935 31.5484 6.12898 31.4839 6.06447 31.4839C5.93544 31.4839 5.74189 31.6129 5.74189 31.871C5.74189 32.1936 5.99995 32.4516 6.38705 32.3226C6.25802 32.3871 6.1935 32.5161 6.1935 32.6452C6.25802 32.6452 6.32253 32.5806 6.38705 32.6452C6.32253 32.7097 6.25802 32.8387 6.32253 32.9677C6.38705 32.9032 6.45157 32.9032 6.51608 32.9032C6.38705 33.2258 6.5806 33.6774 7.09673 33.6774C7.09673 33.6774 6.83866 33.2903 6.83866 32.9677C6.70963 32.3871 6.90318 32.1936 6.90318 31.6774ZM5.67737 33.2258C5.54834 33.3548 5.29028 33.0968 5.29028 33.0968C5.29028 33.0968 4.96769 33.3548 4.90318 33.2258C4.77415 33.0968 5.09673 32.4516 5.29028 32.0645C5.41931 32.5161 5.8064 33.0968 5.67737 33.2258ZM5.29028 31.2903C5.16124 31.0968 4.96769 30.9677 4.64511 30.9032H4.70963C5.03221 30.8387 5.22576 30.6452 5.29028 30.5161C5.35479 30.6452 5.54834 30.8387 5.87092 30.9032H5.93544C5.61286 30.9677 5.41931 31.0968 5.29028 31.2903Z" fill="#FCA110"/>
<path d="M4.6451 29.871C4.6451 30 4.58058 30 4.51607 30C4.32252 30 4.38703 29.7419 4.38703 29.7419C4.32252 29.7419 4.258 29.871 4.258 29.9355C4.19349 29.9355 4.12897 30 4.06445 30.0645C4.12897 30.129 4.19349 30.129 4.258 30.129C4.19349 30.2581 4.258 30.3226 4.38703 30.3871C4.38703 30.3226 4.38703 30.2581 4.38703 30.2581C4.58058 30.3226 4.83865 30.2581 4.83865 29.9355C4.83865 29.871 4.83865 29.8065 4.77413 29.7419H4.58058C4.6451 29.8065 4.6451 29.8065 4.6451 29.871Z" fill="#FCA110"/>
</svg>
