<svg width="31" height="30" viewBox="0 0 31 30" fill="none" xmlns="http://www.w3.org/2000/svg">
<g clip-path="url(#clip0_14_7)">
<path d="M30.8844 17.8125C30.8844 17.0613 30.5859 16.3612 30.0715 15.845C30.6547 15.2062 30.9518 14.3499 30.8706 13.4587C30.7245 11.87 29.2948 10.625 27.6141 10.625H19.9009C20.283 9.46369 20.8948 7.33498 20.8948 5.62498C20.8948 2.91373 18.5935 0.625 17.1487 0.625C15.8526 0.625 14.9248 1.35625 14.8861 1.38625C14.7374 1.50502 14.6513 1.68502 14.6513 1.87498V6.11371L11.0538 13.9125L10.9052 13.9887V13.7499C10.9052 13.4049 10.6255 13.1249 10.2808 13.1249H4.03737C2.31546 13.125 0.915649 14.5263 0.915649 16.25V26.25C0.915649 27.9738 2.31546 29.375 4.03737 29.375H7.78347C9.13329 29.375 10.2871 28.5125 10.7216 27.3087C11.7606 27.8437 13.1591 28.125 14.027 28.125H25.4888C26.8486 28.125 28.0387 27.2075 28.3183 25.9425C28.4619 25.29 28.3783 24.6337 28.0936 24.0637C29.0151 23.6 29.6357 22.6462 29.6357 21.5625C29.6357 21.12 29.5346 20.6962 29.3435 20.3137C30.2651 19.8487 30.8844 18.8962 30.8844 17.8125ZM28.2509 19.355C28.0099 19.3837 27.8063 19.5474 27.729 19.7787C27.6528 20.01 27.7165 20.2637 27.8938 20.4312C28.211 20.73 28.387 21.1325 28.387 21.5625C28.387 22.3512 27.7914 23.0137 27.0035 23.105C26.7625 23.1337 26.5589 23.2974 26.4816 23.5287C26.4054 23.76 26.4691 24.0137 26.6464 24.1812C27.0572 24.5687 27.2221 25.1124 27.0984 25.6725C26.9449 26.37 26.268 26.875 25.4889 26.875H14.027C13.013 26.875 11.3123 26.3988 10.7229 25.8075C10.5443 25.63 10.2746 25.5775 10.0424 25.6725C9.80888 25.7688 9.65652 25.9975 9.65652 26.25C9.65652 27.2838 8.81616 28.125 7.78347 28.125H4.03737C3.00468 28.125 2.16433 27.2838 2.16433 26.25V16.25C2.16433 15.2162 3.00468 14.375 4.03737 14.375H9.65652V15C9.65652 15.2163 9.7689 15.4175 9.95369 15.5325C10.136 15.6425 10.3658 15.6537 10.5606 15.5587L11.8092 14.9337C11.9354 14.8712 12.0365 14.7662 12.0965 14.6375L15.8425 6.51244C15.88 6.42994 15.9 6.33994 15.9 6.24994V2.21371C16.1597 2.06998 16.6106 1.87498 17.1487 1.87498C17.833 1.87498 19.6461 3.57748 19.6461 5.62498C19.6461 7.825 18.4499 10.9962 18.4386 11.0275C18.3662 11.2188 18.3912 11.435 18.5073 11.605C18.6247 11.7738 18.817 11.875 19.0217 11.875H27.6141C28.6555 11.875 29.5396 12.6213 29.6269 13.5738C29.6931 14.2863 29.351 14.9638 28.7379 15.3425C28.5468 15.46 28.4332 15.6725 28.4419 15.8988C28.4507 16.125 28.5806 16.3275 28.7803 16.4313C29.3085 16.7 29.6357 17.23 29.6357 17.8125C29.6357 18.6012 29.0401 19.2637 28.2509 19.355Z" fill="#453D2B"/>
<path d="M10.2815 14.375C9.93654 14.375 9.65652 14.655 9.65652 15V26.25C9.65652 26.595 9.93654 26.8751 10.2815 26.8751C10.6265 26.8751 10.9066 26.595 10.9066 26.25V15C10.9066 14.655 10.6265 14.375 10.2815 14.375Z" fill="#453D2B"/>
</g>
<defs>
<clipPath id="clip0_14_7">
<rect width="29.9688" height="30" fill="white" transform="translate(0.915649)"/>
</clipPath>
</defs>
</svg>
