<svg width="40" height="40" viewBox="0 0 40 40" fill="none" xmlns="http://www.w3.org/2000/svg">
<path d="M38.125 8.75H1.875C1.70924 8.75 1.55027 8.81585 1.43306 8.93306C1.31585 9.05027 1.25 9.20924 1.25 9.375V30.625C1.25 30.7908 1.31585 30.9497 1.43306 31.0669C1.55027 31.1842 1.70924 31.25 1.875 31.25H38.125C38.2908 31.25 38.4497 31.1842 38.5669 31.0669C38.6842 30.9497 38.75 30.7908 38.75 30.625V9.375C38.75 9.20924 38.6842 9.05027 38.5669 8.93306C38.4497 8.81585 38.2908 8.75 38.125 8.75ZM37.5 30H2.5V10H37.5V30Z" fill="#453D2B"/>
<path d="M35.625 15C34.7962 15 34.0013 14.6708 33.4153 14.0847C32.8292 13.4987 32.5 12.7038 32.5 11.875C32.5 11.7092 32.4342 11.5503 32.3169 11.4331C32.1997 11.3158 32.0408 11.25 31.875 11.25H8.125C7.95924 11.25 7.80027 11.3158 7.68306 11.4331C7.56585 11.5503 7.5 11.7092 7.5 11.875C7.5 12.2854 7.41917 12.6917 7.26212 13.0709C7.10508 13.45 6.87489 13.7945 6.58471 14.0847C6.29453 14.3749 5.95003 14.6051 5.57089 14.7621C5.19174 14.9192 4.78538 15 4.375 15C4.20924 15 4.05027 15.0658 3.93306 15.1831C3.81585 15.3003 3.75 15.4592 3.75 15.625V24.375C3.75 24.5408 3.81585 24.6997 3.93306 24.8169C4.05027 24.9342 4.20924 25 4.375 25C4.78538 25 5.19174 25.0808 5.57089 25.2379C5.95003 25.3949 6.29453 25.6251 6.58471 25.9153C6.87489 26.2055 7.10508 26.55 7.26212 26.9291C7.41917 27.3083 7.5 27.7146 7.5 28.125C7.5 28.2908 7.56585 28.4497 7.68306 28.5669C7.80027 28.6842 7.95924 28.75 8.125 28.75H31.875C32.0408 28.75 32.1997 28.6842 32.3169 28.5669C32.4342 28.4497 32.5 28.2908 32.5 28.125C32.5 27.2962 32.8292 26.5013 33.4153 25.9153C34.0013 25.3292 34.7962 25 35.625 25C35.7908 25 35.9497 24.9342 36.0669 24.8169C36.1842 24.6997 36.25 24.5408 36.25 24.375V15.625C36.25 15.4592 36.1842 15.3003 36.0669 15.1831C35.9497 15.0658 35.7908 15 35.625 15ZM35 23.7937C34.0657 23.9306 33.2005 24.3652 32.5328 25.0328C31.8652 25.7005 31.4306 26.5657 31.2938 27.5H8.70625C8.56938 26.5657 8.13484 25.7005 7.46716 25.0328C6.79948 24.3652 5.93427 23.9306 5 23.7937V16.2063C5.93427 16.0694 6.79948 15.6348 7.46716 14.9672C8.13484 14.2995 8.56938 13.4343 8.70625 12.5H31.2938C31.4306 13.4343 31.8652 14.2995 32.5328 14.9672C33.2005 15.6348 34.0657 16.0694 35 16.2063V23.7937Z" fill="#453D2B"/>
<path d="M20 13.75C18.7639 13.75 17.5555 14.1165 16.5277 14.8033C15.4999 15.4901 14.6988 16.4662 14.2258 17.6082C13.7527 18.7502 13.6289 20.0069 13.8701 21.2193C14.1113 22.4317 14.7065 23.5453 15.5806 24.4194C16.4547 25.2935 17.5683 25.8887 18.7807 26.1299C19.9931 26.371 21.2497 26.2473 22.3918 25.7742C23.5338 25.3012 24.5099 24.5001 25.1967 23.4723C25.8834 22.4445 26.25 21.2361 26.25 20C26.2473 18.3432 25.588 16.755 24.4165 15.5835C23.245 14.412 21.6568 13.7526 20 13.75ZM20 25C19.0111 25 18.0444 24.7067 17.2221 24.1573C16.3999 23.6079 15.759 22.827 15.3806 21.9134C15.0022 20.9998 14.9031 19.9944 15.0961 19.0245C15.289 18.0546 15.7652 17.1637 16.4645 16.4644C17.1637 15.7652 18.0546 15.289 19.0245 15.0961C19.9944 14.9031 20.9998 15.0021 21.9134 15.3806C22.827 15.759 23.6079 16.3999 24.1573 17.2221C24.7067 18.0444 25 19.0111 25 20C24.9982 21.3255 24.4708 22.5962 23.5335 23.5335C22.5962 24.4708 21.3255 24.9982 20 25Z" fill="#453D2B"/>
<path d="M21.875 18.75V18.125C21.875 17.9592 21.8092 17.8003 21.6919 17.683C21.5747 17.5658 21.4158 17.5 21.25 17.5H18.75C18.5842 17.5 18.4253 17.5658 18.3081 17.683C18.1908 17.8003 18.125 17.9592 18.125 18.125V18.75C18.125 18.9157 18.1908 19.0747 18.3081 19.1919C18.4253 19.3091 18.5842 19.375 18.75 19.375H21.25C21.7468 19.3765 22.2229 19.5745 22.5742 19.9258C22.9255 20.2771 23.1235 20.7532 23.125 21.25V21.875C23.1235 22.3718 22.9255 22.8479 22.5742 23.1992C22.2229 23.5505 21.7468 23.7485 21.25 23.75H20.625V24.375H19.375V23.75H18.75C18.2532 23.7485 17.7771 23.5505 17.4258 23.1992C17.0745 22.8479 16.8765 22.3718 16.875 21.875H18.125C18.125 22.0407 18.1908 22.1997 18.3081 22.3169C18.4253 22.4341 18.5842 22.5 18.75 22.5H21.25C21.4158 22.5 21.5747 22.4341 21.6919 22.3169C21.8092 22.1997 21.875 22.0407 21.875 21.875V21.25C21.875 21.0842 21.8092 20.9253 21.6919 20.808C21.5747 20.6908 21.4158 20.625 21.25 20.625H18.75C18.2532 20.6235 17.7771 20.4255 17.4258 20.0742C17.0745 19.7229 16.8765 19.2468 16.875 18.75V18.125C16.8765 17.6282 17.0745 17.1521 17.4258 16.8008C17.7771 16.4495 18.2532 16.2515 18.75 16.25H19.375V15.625H20.625V16.25H21.25C21.7468 16.2515 22.2229 16.4495 22.5742 16.8008C22.9255 17.1521 23.1235 17.6282 23.125 18.125V18.75H21.875Z" fill="#453D2B"/>
<path d="M33.1248 3.75004H10.6248V1.87504C10.6245 1.75724 10.5909 1.64193 10.5278 1.54241C10.4648 1.44288 10.3749 1.3632 10.2686 1.31254C10.1634 1.2611 10.0458 1.24083 9.92948 1.25412C9.81319 1.26741 9.70313 1.31371 9.61232 1.38754L6.48732 3.88754C6.41338 3.94549 6.3536 4.01949 6.31248 4.10395C6.27137 4.1884 6.25 4.28111 6.25 4.37504C6.25 4.46898 6.27137 4.56168 6.31248 4.64614C6.3536 4.7306 6.41338 4.8046 6.48732 4.86254L9.61232 7.36254C9.72128 7.45254 9.85849 7.50123 9.99982 7.50004C10.0932 7.50166 10.1855 7.48019 10.2686 7.43754C10.3749 7.38689 10.4648 7.3072 10.5278 7.20768C10.5909 7.10816 10.6245 6.99285 10.6248 6.87504V5.00004H32.4998V7.50004H33.7498V4.37504C33.7498 4.20928 33.684 4.05031 33.5668 3.9331C33.4495 3.81589 33.2906 3.75004 33.1248 3.75004ZM9.37482 5.57504L7.87482 4.37504L9.37482 3.17504V5.57504Z" fill="#453D2B"/>
<path d="M33.5125 35.1375L30.3875 32.6375C30.2967 32.5637 30.1866 32.5174 30.0703 32.5041C29.9541 32.4908 29.8364 32.5111 29.7313 32.5625C29.6249 32.6132 29.535 32.6929 29.472 32.7924C29.409 32.8919 29.3753 33.0072 29.375 33.125V35H7.5V32.5H6.25V35.625C6.25 35.7908 6.31585 35.9498 6.43306 36.067C6.55027 36.1842 6.70924 36.25 6.875 36.25H29.375V38.125C29.3753 38.2428 29.409 38.3582 29.472 38.4577C29.535 38.5572 29.6249 38.6369 29.7313 38.6875C29.8146 38.7295 29.9067 38.751 30 38.75C30.1413 38.7512 30.2785 38.7025 30.3875 38.6125L33.5125 36.1125C33.5864 36.0546 33.6462 35.9806 33.6873 35.8961C33.7285 35.8117 33.7498 35.719 33.7498 35.625C33.7498 35.5311 33.7285 35.4384 33.6873 35.3539C33.6462 35.2695 33.5864 35.1955 33.5125 35.1375ZM30.625 36.825V34.425L32.125 35.625L30.625 36.825Z" fill="#453D2B"/>
</svg>
