<svg width="20" height="20" viewBox="0 0 20 20" fill="none" xmlns="http://www.w3.org/2000/svg">
<path d="M18.5277 14.8864L14.8844 12.4566C14.4221 12.1507 13.8023 12.2513 13.4605 12.6878L12.3993 14.0524C12.2629 14.2323 12.015 14.2845 11.8177 14.1748L11.6158 14.0635C10.9466 13.6988 10.1139 13.2446 8.43626 11.5662C6.75861 9.88787 6.30358 9.05452 5.93882 8.3865L5.82813 8.18461C5.71701 7.98733 5.76819 7.73834 5.9481 7.60085L7.31168 6.53985C7.74797 6.19798 7.84875 5.57836 7.54325 5.11585L5.11361 1.47232C4.80052 1.00134 4.17237 0.85995 3.68767 1.15134L2.16419 2.06656C1.6855 2.348 1.33431 2.8038 1.18425 3.33845C0.635648 5.33749 1.04836 8.78753 6.13021 13.8703C10.1727 17.9128 13.1822 19 15.2507 19C15.7267 19.002 16.2009 18.94 16.6605 18.8158C17.1952 18.6659 17.651 18.3146 17.9323 17.8358L18.8484 16.3131C19.1401 15.8283 18.9988 15.1997 18.5277 14.8864ZM18.3315 16.0053L17.4175 17.5289C17.2156 17.8745 16.8877 18.1286 16.5027 18.238C14.6573 18.7447 11.4334 18.325 6.55463 13.4459C1.67584 8.56677 1.25624 5.34291 1.76287 3.49717C1.8724 3.1116 2.12683 2.78331 2.47285 2.58103L3.99633 1.66701C4.20664 1.54045 4.47927 1.6018 4.61513 1.80618L5.93495 3.78782L7.0427 5.44939C7.17536 5.65001 7.13177 5.9189 6.94252 6.06735L5.57862 7.12835C5.16356 7.44575 5.04503 8.02006 5.30058 8.47586L5.40888 8.67265C5.79224 9.37579 6.26885 10.2505 8.0089 11.9904C9.74894 13.7303 10.6233 14.2069 11.3261 14.5903L11.5232 14.6989C11.9789 14.9544 12.5532 14.8359 12.8706 14.4208L13.9315 13.0568C14.08 12.8677 14.3487 12.8241 14.5494 12.9566L18.1924 15.3864C18.3969 15.5222 18.4582 15.795 18.3315 16.0053Z" fill="#453D2B" stroke="#453D2B" stroke-width="0.5"/>
<path d="M11.1995 4.0015C14.0144 4.00463 16.2956 6.28582 16.2987 9.10075C16.2987 9.26642 16.433 9.4007 16.5987 9.4007C16.7643 9.4007 16.8986 9.26642 16.8986 9.10075C16.8951 5.95463 14.3456 3.40506 11.1995 3.40161C11.0338 3.40161 10.8995 3.53589 10.8995 3.70156C10.8995 3.86722 11.0338 4.0015 11.1995 4.0015Z" fill="#453D2B"/>
<path d="M11.1995 5.8013C13.0209 5.80345 14.4969 7.27944 14.499 9.10083C14.499 9.26649 14.6333 9.40077 14.7989 9.40077C14.9646 9.40077 15.0989 9.26649 15.0989 9.10083C15.0964 6.94825 13.352 5.20388 11.1995 5.20142C11.0338 5.20142 10.8995 5.33569 10.8995 5.50136C10.8995 5.66703 11.0338 5.8013 11.1995 5.8013Z" fill="#453D2B"/>
<path d="M11.1995 7.60111C12.0274 7.60209 12.6983 8.27298 12.6993 9.1009C12.6993 9.26656 12.8336 9.40084 12.9992 9.40084C13.1648 9.40084 13.2992 9.26656 13.2992 9.1009C13.2978 7.94183 12.3586 7.00252 11.1995 7.00122C11.0338 7.00122 10.8995 7.1355 10.8995 7.30116C10.8995 7.46683 11.0338 7.60111 11.1995 7.60111Z" fill="#453D2B"/>
</svg>
