<svg width="40" height="40" viewBox="0 0 40 40" fill="none" xmlns="http://www.w3.org/2000/svg">
<path d="M17.0834 18.75H1.25C0.559998 18.75 0 18.19 0 17.5C0 16.81 0.559998 16.25 1.25 16.25H17.0834C17.7734 16.25 18.3334 16.81 18.3334 17.5C18.3334 18.19 17.7734 18.75 17.0834 18.75Z" fill="#453D2B"/>
<path d="M10.8337 25C10.5135 25 10.1937 24.8782 9.9502 24.6335C9.46191 24.1449 9.46191 23.3533 9.9502 22.865L15.317 17.4985L9.9502 12.1335C9.46191 11.6449 9.46191 10.8533 9.9502 10.365C10.4385 9.87671 11.2301 9.87671 11.7187 10.365L17.9687 16.615C18.457 17.1033 18.457 17.8949 17.9687 18.3835L11.7187 24.6335C11.4736 24.8782 11.1535 25 10.8337 25V25Z" fill="#453D2B"/>
<path d="M26.6671 40C24.8287 40 23.334 38.5049 23.334 36.6666V6.66656C23.334 5.2417 24.2407 3.97003 25.5905 3.50158L35.6039 0.163264C37.8439 -0.523381 40.0005 1.1383 40.0005 3.33343V33.3334C40.0005 34.7568 39.0939 36.0266 37.7456 36.4966L27.7288 39.8367C27.3638 39.9499 27.0257 40 26.6671 40V40ZM36.6671 2.5C36.5588 2.5 36.4672 2.51342 36.369 2.54333L26.3973 5.86822C26.0705 5.98175 25.834 6.31164 25.834 6.66656V36.6666C25.834 37.2351 26.4504 37.6184 26.9656 37.4567L36.9372 34.1318C37.2622 34.0182 37.5005 33.6884 37.5005 33.3334V3.33343C37.5005 2.87506 37.1273 2.5 36.6671 2.5V2.5Z" fill="#453D2B"/>
<path d="M14.584 8.33344C13.894 8.33344 13.334 7.77344 13.334 7.08344V4.58344C13.334 2.05505 15.3887 0 17.9171 0H36.6671C37.3571 0 37.9171 0.559998 37.9171 1.25C37.9171 1.94 37.3571 2.5 36.6671 2.5H17.9171C16.7687 2.5 15.834 3.43506 15.834 4.58344V7.08344C15.834 7.77344 15.274 8.33344 14.584 8.33344V8.33344Z" fill="#453D2B"/>
<path d="M24.584 34.9999H17.9171C15.3887 34.9999 13.334 32.9449 13.334 30.4165V27.9165C13.334 27.2265 13.894 26.6665 14.584 26.6665C15.274 26.6665 15.834 27.2265 15.834 27.9165V30.4165C15.834 31.5649 16.7687 32.4999 17.9171 32.4999H24.584C25.274 32.4999 25.834 33.0599 25.834 33.7499C25.834 34.4399 25.274 34.9999 24.584 34.9999Z" fill="#453D2B"/>
</svg>
