<svg width="40" height="40" viewBox="0 0 40 40" fill="none" xmlns="http://www.w3.org/2000/svg">
<g clip-path="url(#clip0_30_500)">
<path d="M38.8236 16.4707H36.5517C36.0363 16.4707 35.5834 16.1495 35.4481 15.6895C35.0199 14.2306 34.5939 13.1234 34.148 12.3057C33.915 11.8798 34.0068 11.328 34.3703 10.9645L35.9786 9.35625C36.1998 9.1362 36.3232 8.83619 36.3232 8.52445C36.3232 8.2127 36.1997 7.91376 35.9786 7.69265L32.3066 4.02065C31.8465 3.56056 31.1029 3.56056 30.643 4.02065L29.0347 5.62774C28.6711 5.99133 28.1205 6.08302 27.6935 5.85125C26.8781 5.40649 25.771 4.98066 24.3098 4.55004C23.8497 4.41476 23.5285 3.96174 23.5285 3.44647V1.17458C23.5285 0.525109 23.0013 -0.00201416 22.3519 -0.00201416H17.6458C16.9963 -0.00201416 16.4692 0.525109 16.4692 1.17458V3.44408C16.4692 3.95827 16.1479 4.41236 15.6879 4.54764C14.2278 4.97826 13.1206 5.40409 12.3054 5.84765C11.8783 6.08062 11.3276 5.98879 10.9642 5.62534L9.35706 4.01825C8.89698 3.55816 8.15341 3.55816 7.69346 4.01825L4.02146 7.69025C3.80022 7.91029 3.6768 8.2103 3.6768 8.52205C3.6768 8.83379 3.80035 9.13274 4.02146 9.35385L5.62975 10.9621C5.99214 11.3257 6.08384 11.8775 5.85206 12.3033C5.40611 13.121 4.98148 14.2282 4.55205 15.6871C4.41677 16.1471 3.96375 16.4683 3.44849 16.4683H1.1766C0.527123 16.4683 0 16.9955 0 17.6449V22.3511C0 23.0005 0.527123 23.5277 1.1766 23.5277H3.44969C3.96388 23.5277 4.41797 23.8489 4.55325 24.3089C4.98268 25.7666 5.40744 26.8738 5.85326 27.6927C6.08504 28.1197 5.9944 28.6704 5.63095 29.0339L4.02266 30.6421C3.80142 30.8622 3.678 31.1622 3.678 31.4739C3.678 31.7857 3.80155 32.0846 4.02266 32.3057L7.69466 35.9777C8.15474 36.4378 8.89831 36.4378 9.35826 35.9777L10.9666 34.3707C11.3301 34.0071 11.8819 33.9166 12.3067 34.1471C13.1221 34.5919 14.2291 35.0177 15.6904 35.4484C16.1505 35.5836 16.4717 36.0367 16.4717 36.5519V38.8238C16.4717 39.4733 16.9988 40.0004 17.6483 40.0004H22.3544C23.0039 40.0004 23.531 39.4733 23.5286 38.8238V36.5543C23.5286 36.0401 23.8498 35.586 24.311 35.4508C25.771 35.0201 26.8782 34.5954 27.6935 34.1507C28.1205 33.9178 28.6712 34.0096 29.0347 34.3731L30.643 35.9801C31.103 36.4402 31.8466 36.4402 32.3066 35.9801L35.9786 32.3081C36.1998 32.0881 36.3232 31.7881 36.3232 31.4763C36.3232 31.1646 36.1997 30.8657 35.9786 30.6445L34.3703 29.0363C34.0067 28.6727 33.9162 28.1209 34.148 27.6951C34.5939 26.8774 35.0197 25.7702 35.4481 24.3113C35.5834 23.8513 36.0364 23.5301 36.5517 23.5301H38.8236C39.473 23.5301 40.0002 23.0029 40.0002 22.3535V17.6473C40 16.9979 39.473 16.4707 38.8236 16.4707ZM37.6506 21.1746H36.5553C35.0045 21.1746 33.6222 22.1899 33.1939 23.6441C32.8128 24.9407 32.4504 25.8972 32.0845 26.5667C31.3575 27.9032 31.6139 29.601 32.7104 30.6976L33.4857 31.4741L31.4773 33.4825L30.702 32.7072C29.6055 31.6107 27.9077 31.3529 26.5711 32.0813C25.9029 32.4449 24.9463 32.8083 23.6486 33.1907C22.1931 33.619 21.1778 35.0015 21.1778 36.5521V37.6475H18.827V36.5532C18.827 35.0025 17.8105 33.6202 16.3575 33.193C15.0585 32.8094 14.1021 32.447 13.4337 32.0824C12.0984 31.3541 10.4005 31.6118 9.30402 32.7083L8.52873 33.4835L6.52033 31.4751L7.29682 30.6987C8.39211 29.6022 8.64988 27.9043 7.9215 26.5678C7.55671 25.8983 7.19326 24.9418 6.81208 23.6452C6.38385 22.191 5.00134 21.1757 3.45076 21.1757H2.35546V18.8226H3.45076C5.00147 18.8226 6.38505 17.8073 6.81208 16.3531C7.19326 15.0565 7.55565 14.1012 7.9215 13.4305C8.64855 12.0952 8.39092 10.3962 7.29562 9.3008L6.51913 8.52431L8.52753 6.51592L9.30282 7.29121C10.3982 8.3877 12.0972 8.64653 13.4337 7.91709C14.1008 7.5535 15.0573 7.19005 16.3551 6.80767C17.8105 6.37944 18.8258 4.99692 18.8258 3.44634V2.35091H21.1789V3.44394C21.1789 4.99466 22.1942 6.37704 23.6484 6.8042C24.9462 7.18778 25.9027 7.55017 26.571 7.91482C27.9063 8.64307 29.6052 8.38544 30.7007 7.28894L31.4772 6.51365L33.4856 8.52205L32.7103 9.29854C31.6138 10.3938 31.356 12.0929 32.0844 13.4294C32.4502 14.0989 32.8126 15.0554 33.1938 16.352C33.622 17.8062 35.0046 18.8215 36.5551 18.8215H37.6506V21.1746V21.1746Z" fill="#453D2B"/>
<path d="M20.0017 10.5869C14.8121 10.5869 10.5894 14.8094 10.5894 19.9992C10.5894 25.189 14.8119 29.4116 20.0017 29.4116C25.1915 29.4116 29.4141 25.189 29.4141 19.9992C29.4141 14.8094 25.1915 10.5869 20.0017 10.5869ZM20.0017 27.0585C16.1097 27.0585 12.9424 23.8925 12.9424 19.9992C12.9424 16.106 16.1097 12.9399 20.0017 12.9399C23.8938 12.9399 27.061 16.1061 27.061 19.9992C27.061 23.8923 23.895 27.0585 20.0017 27.0585Z" fill="#453D2B"/>
</g>
<defs>
<clipPath id="clip0_30_500">
<rect width="40" height="40" fill="white"/>
</clipPath>
</defs>
</svg>
