<svg width="40" height="40" viewBox="0 0 40 40" fill="none" xmlns="http://www.w3.org/2000/svg">
<path d="M37.0043 6.89656H2.9957C1.34117 6.89656 0 8.23773 0 9.89226V30.1078C0 31.7623 1.34117 33.1035 2.9957 33.1035H37.0043C38.6587 33.1035 40 31.7623 40 30.1078V9.89226C40 8.23773 38.6588 6.89656 37.0043 6.89656Z" fill="#F5F5F5"/>
<path d="M0.165039 8.9125H39.8354C39.4295 7.7393 38.3157 6.89656 37.0046 6.89656H2.99598C1.68473 6.89656 0.571055 7.7393 0.165039 8.9125Z" fill="#FF4B55"/>
<path d="M40 14.9602H0V16.976H40V14.9602Z" fill="#FF4B55"/>
<path d="M40 10.9281H0V12.944H40V10.9281Z" fill="#FF4B55"/>
<path d="M0 20.3183C0 20.6991 0.308828 21.008 0.689687 21.008H40V18.992H0V20.3183Z" fill="#FF4B55"/>
<path d="M40 27.0563H0V29.0722H40V27.0563Z" fill="#FF4B55"/>
<path d="M39.8355 31.0875H0.165039C0.571055 32.2607 1.6848 33.1034 2.99598 33.1034H37.0046C38.3158 33.1034 39.4295 32.2607 39.8355 31.0875Z" fill="#FF4B55"/>
<path d="M40 23.0242H0V25.0401H40V23.0242Z" fill="#FF4B55"/>
<path d="M0.689687 21.008H17.9311C18.312 21.008 18.6208 20.6991 18.6208 20.3183V7.58617C18.6208 7.20523 18.312 6.89648 17.9311 6.89648H2.9957C1.34117 6.89656 0 8.23773 0 9.89227V20.3183C0 20.6992 0.308828 21.008 0.689687 21.008Z" fill="#41479B"/>
<path d="M1.93692 8.47958L2.08958 8.93739L2.57216 8.94107C2.63465 8.94161 2.66051 9.0213 2.61028 9.05841L2.22208 9.34505L2.3677 9.80513C2.38661 9.86466 2.31872 9.91403 2.26786 9.87763L1.87528 9.59708L1.4827 9.87771C1.43184 9.91411 1.36411 9.86474 1.38286 9.80521L1.52848 9.34513L1.14028 9.05849C1.09005 9.0213 1.11591 8.94161 1.17841 8.94114L1.66098 8.93747L1.81364 8.47966C1.83333 8.42029 1.91708 8.42029 1.93692 8.47958Z" fill="#F5F5F5"/>
<path d="M1.93692 10.8743L2.08958 11.3321L2.57216 11.3358C2.63465 11.3363 2.66051 11.4159 2.61028 11.4531L2.22208 11.7398L2.3677 12.1999C2.38661 12.2595 2.31872 12.3088 2.26786 12.2724L1.87528 11.9919L1.4827 12.2725C1.43184 12.3088 1.36411 12.2595 1.38286 12.2L1.52848 11.7399L1.14028 11.4532C1.09005 11.416 1.11591 11.3364 1.17841 11.3359L1.66098 11.3322L1.81364 10.8744C1.83333 10.8151 1.91708 10.8151 1.93692 10.8743Z" fill="#F5F5F5"/>
<path d="M1.93692 13.2692L2.08958 13.727L2.57216 13.7307C2.63465 13.7313 2.66051 13.8109 2.61028 13.8481L2.22208 14.1348L2.3677 14.5949C2.38661 14.6544 2.31872 14.7038 2.26786 14.6674L1.87528 14.3868L1.4827 14.6674C1.43184 14.7038 1.36411 14.6545 1.38286 14.5949L1.52848 14.1349L1.14028 13.8481C1.09005 13.8109 1.11591 13.7313 1.17841 13.7308L1.66098 13.7271L1.81364 13.2693C1.83333 13.2099 1.91708 13.2099 1.93692 13.2692Z" fill="#F5F5F5"/>
<path d="M1.93692 15.6641L2.08958 16.1219L2.57216 16.1255C2.63465 16.1261 2.66051 16.2058 2.61028 16.2429L2.22208 16.5296L2.3677 16.9897C2.38661 17.0492 2.31872 17.0986 2.26786 17.0622L1.87528 16.7816L1.4827 17.0623C1.43184 17.0986 1.36411 17.0493 1.38286 16.9898L1.52848 16.5297L1.14028 16.243C1.09005 16.2059 1.11591 16.1262 1.17841 16.1256L1.66098 16.1219L1.81364 15.6641C1.83333 15.6048 1.91708 15.6048 1.93692 15.6641Z" fill="#F5F5F5"/>
<path d="M1.93692 18.0589L2.08958 18.5167L2.57216 18.5204C2.63465 18.5209 2.66051 18.6005 2.61028 18.6377L2.22208 18.9244L2.3677 19.3845C2.38661 19.4441 2.31872 19.4934 2.26786 19.457L1.87528 19.1765L1.4827 19.4571C1.43184 19.4934 1.36411 19.4441 1.38286 19.3846L1.52848 18.9245L1.14028 18.6378C1.09005 18.6006 1.11591 18.521 1.17841 18.5205L1.66098 18.5168L1.81364 18.059C1.83333 17.9997 1.91708 17.9997 1.93692 18.0589Z" fill="#F5F5F5"/>
<path d="M3.79581 9.6536L3.94846 10.1114L4.43104 10.1151C4.49354 10.1156 4.5194 10.1953 4.46917 10.2324L4.08096 10.5191L4.22659 10.9792C4.2455 11.0388 4.1776 11.0881 4.12675 11.0517L3.73417 10.7711L3.34159 11.0517C3.29073 11.0881 3.223 11.0388 3.24175 10.9792L3.38737 10.5191L2.99917 10.2324C2.94893 10.1952 2.97479 10.1156 3.03729 10.1151L3.51987 10.1114L3.67253 9.6536C3.69221 9.59438 3.77604 9.59438 3.79581 9.6536Z" fill="#F5F5F5"/>
<path d="M3.79581 12.0485L3.94846 12.5063L4.43104 12.51C4.49354 12.5106 4.5194 12.5902 4.46917 12.6274L4.08096 12.9141L4.22659 13.3741C4.2455 13.4337 4.1776 13.4831 4.12675 13.4466L3.73417 13.166L3.34159 13.4466C3.29073 13.483 3.223 13.4338 3.24175 13.3741L3.38737 12.9141L2.99917 12.6274C2.94893 12.5903 2.97479 12.5106 3.03729 12.51L3.51987 12.5063L3.67253 12.0485C3.69221 11.9892 3.77604 11.9892 3.79581 12.0485Z" fill="#F5F5F5"/>
<path d="M3.79581 14.4434L3.94846 14.9012L4.43104 14.9048C4.49354 14.9054 4.5194 14.985 4.46917 15.0222L4.08096 15.3089L4.22659 15.769C4.2455 15.8285 4.1776 15.8779 4.12675 15.8415L3.73417 15.5609L3.34159 15.8415C3.29073 15.8778 3.223 15.8285 3.24175 15.769L3.38737 15.3089L2.99917 15.0222C2.94893 14.985 2.97479 14.9054 3.03729 14.9048L3.51987 14.9012L3.67253 14.4434C3.69221 14.3841 3.77604 14.3841 3.79581 14.4434Z" fill="#F5F5F5"/>
<path d="M3.79581 16.8382L3.94846 17.296L4.43104 17.2997C4.49354 17.3002 4.5194 17.3798 4.46917 17.417L4.08096 17.7037L4.22659 18.1638C4.2455 18.2234 4.1776 18.2727 4.12675 18.2363L3.73417 17.9557L3.34159 18.2363C3.29073 18.2727 3.223 18.2234 3.24175 18.1638L3.38737 17.7037L2.99917 17.417C2.94893 17.3798 2.97479 17.3002 3.03729 17.2997L3.51987 17.296L3.67253 16.8382C3.69221 16.779 3.77604 16.779 3.79581 16.8382Z" fill="#F5F5F5"/>
<path d="M5.65469 8.47945L5.80735 8.93727L6.28993 8.94094C6.35243 8.94149 6.37829 9.02117 6.32805 9.05828L5.93985 9.34492L6.08548 9.805C6.10438 9.86453 6.03649 9.91391 5.98563 9.8775L5.59305 9.59688L5.20048 9.8775C5.14962 9.91391 5.08188 9.86453 5.10063 9.805L5.24626 9.34492L4.85806 9.05828C4.80782 9.0211 4.83368 8.94141 4.89618 8.94094L5.37876 8.93727L5.53141 8.47945C5.5511 8.42016 5.63493 8.42016 5.65469 8.47945Z" fill="#F5F5F5"/>
<path d="M5.65469 10.8743L5.80735 11.3321L6.28993 11.3358C6.35243 11.3363 6.37829 11.4159 6.32805 11.4531L5.93985 11.7398L6.08548 12.1999C6.10438 12.2594 6.03649 12.3088 5.98563 12.2724L5.59305 11.9918L5.20048 12.2724C5.14962 12.3087 5.08188 12.2594 5.10063 12.1999L5.24626 11.7398L4.85806 11.4531C4.80782 11.4159 4.83368 11.3363 4.89618 11.3358L5.37876 11.3321L5.53141 10.8743C5.5511 10.8151 5.63493 10.8151 5.65469 10.8743Z" fill="#F5F5F5"/>
<path d="M5.65469 13.2692L5.80735 13.727L6.28993 13.7307C6.35243 13.7313 6.37829 13.8109 6.32805 13.8481L5.93985 14.1348L6.08548 14.5949C6.10438 14.6544 6.03649 14.7038 5.98563 14.6674L5.59305 14.3867L5.20048 14.6674C5.14962 14.7037 5.08188 14.6545 5.10063 14.5949L5.24626 14.1348L4.85806 13.8481C4.80782 13.8109 4.83368 13.7313 4.89618 13.7307L5.37876 13.727L5.53141 13.2692C5.5511 13.2099 5.63493 13.2099 5.65469 13.2692Z" fill="#F5F5F5"/>
<path d="M5.65469 15.6641L5.80735 16.1219L6.28993 16.1255C6.35243 16.1261 6.37829 16.2058 6.32805 16.2429L5.93985 16.5296L6.08548 16.9897C6.10438 17.0492 6.03649 17.0986 5.98563 17.0622L5.59305 16.7816L5.20048 17.0622C5.14962 17.0985 5.08188 17.0492 5.10063 16.9897L5.24626 16.5296L4.85806 16.2429C4.80782 16.2059 4.83368 16.1261 4.89618 16.1255L5.37876 16.1219L5.53141 15.6641C5.5511 15.6048 5.63493 15.6048 5.65469 15.6641Z" fill="#F5F5F5"/>
<path d="M5.65469 18.0589L5.80735 18.5167L6.28993 18.5204C6.35243 18.5209 6.37829 18.6005 6.32805 18.6377L5.93985 18.9244L6.08548 19.3845C6.10438 19.4441 6.03649 19.4934 5.98563 19.457L5.59305 19.1764L5.20048 19.457C5.14962 19.4934 5.08188 19.4441 5.10063 19.3845L5.24626 18.9244L4.85806 18.6377C4.80782 18.6005 4.83368 18.5209 4.89618 18.5204L5.37876 18.5167L5.53141 18.0589C5.5511 17.9997 5.63493 17.9997 5.65469 18.0589Z" fill="#F5F5F5"/>
<path d="M7.51358 9.6536L7.66624 10.1114L8.14882 10.1151C8.21132 10.1156 8.23718 10.1953 8.18694 10.2324L7.79874 10.5191L7.94436 10.9792C7.96327 11.0388 7.89538 11.0881 7.84452 11.0517L7.45194 10.7711L7.05936 11.0517C7.0085 11.0881 6.94077 11.0388 6.95952 10.9792L7.10515 10.5191L6.71694 10.2324C6.66671 10.1952 6.69257 10.1156 6.75507 10.1151L7.23765 10.1114L7.3903 9.6536C7.40991 9.59438 7.49382 9.59438 7.51358 9.6536Z" fill="#F5F5F5"/>
<path d="M7.51358 12.0485L7.66624 12.5063L8.14882 12.51C8.21132 12.5106 8.23718 12.5902 8.18694 12.6274L7.79874 12.9141L7.94436 13.3741C7.96327 13.4337 7.89538 13.4831 7.84452 13.4466L7.45194 13.166L7.05936 13.4466C7.0085 13.483 6.94077 13.4338 6.95952 13.3741L7.10515 12.9141L6.71694 12.6274C6.66671 12.5903 6.69257 12.5106 6.75507 12.51L7.23765 12.5063L7.3903 12.0485C7.40991 11.9892 7.49382 11.9892 7.51358 12.0485Z" fill="#F5F5F5"/>
<path d="M7.51358 14.4434L7.66624 14.9012L8.14882 14.9048C8.21132 14.9054 8.23718 14.985 8.18694 15.0222L7.79874 15.3089L7.94436 15.769C7.96327 15.8285 7.89538 15.8779 7.84452 15.8415L7.45194 15.5609L7.05936 15.8415C7.0085 15.8778 6.94077 15.8285 6.95952 15.769L7.10515 15.3089L6.71694 15.0222C6.66671 14.985 6.69257 14.9054 6.75507 14.9048L7.23765 14.9012L7.3903 14.4434C7.40991 14.3841 7.49382 14.3841 7.51358 14.4434Z" fill="#F5F5F5"/>
<path d="M7.51358 16.8382L7.66624 17.296L8.14882 17.2997C8.21132 17.3002 8.23718 17.3798 8.18694 17.417L7.79874 17.7037L7.94436 18.1638C7.96327 18.2234 7.89538 18.2727 7.84452 18.2363L7.45194 17.9557L7.05936 18.2363C7.0085 18.2727 6.94077 18.2234 6.95952 18.1638L7.10515 17.7037L6.71694 17.417C6.66671 17.3798 6.69257 17.3002 6.75507 17.2997L7.23765 17.296L7.3903 16.8382C7.40991 16.779 7.49382 16.779 7.51358 16.8382Z" fill="#F5F5F5"/>
<path d="M9.37255 8.47946L9.52521 8.93727L10.0078 8.94094C10.0703 8.94149 10.0961 9.02118 10.0459 9.05829L9.65771 9.34493L9.80333 9.80501C9.82224 9.86454 9.75435 9.91391 9.70349 9.87751L9.31083 9.59696L8.91825 9.87758C8.86739 9.91399 8.79966 9.86462 8.81841 9.80508L8.96403 9.34501L8.57583 9.05837C8.52559 9.02118 8.55145 8.94149 8.61395 8.94102L9.09653 8.93735L9.24919 8.47954C9.26896 8.42016 9.35278 8.42016 9.37255 8.47946Z" fill="#F5F5F5"/>
<path d="M9.37255 10.8743L9.52521 11.3321L10.0078 11.3358C10.0703 11.3363 10.0961 11.4159 10.0459 11.4531L9.65771 11.7398L9.80333 12.1999C9.82224 12.2594 9.75435 12.3088 9.70349 12.2724L9.31083 11.9918L8.91825 12.2724C8.86739 12.3087 8.79966 12.2594 8.81841 12.1999L8.96403 11.7398L8.57583 11.4531C8.52559 11.4159 8.55145 11.3363 8.61395 11.3358L9.09653 11.3321L9.24919 10.8743C9.26896 10.8151 9.35278 10.8151 9.37255 10.8743Z" fill="#F5F5F5"/>
<path d="M9.37255 13.2692L9.52521 13.727L10.0078 13.7307C10.0703 13.7313 10.0961 13.8109 10.0459 13.8481L9.65771 14.1348L9.80333 14.5949C9.82224 14.6544 9.75435 14.7038 9.70349 14.6674L9.31083 14.3867L8.91825 14.6673C8.86739 14.7036 8.79966 14.6543 8.81841 14.5948L8.96403 14.1347L8.57583 13.848C8.52559 13.8108 8.55145 13.7312 8.61395 13.7306L9.09653 13.727L9.24919 13.2692C9.26896 13.2099 9.35278 13.2099 9.37255 13.2692Z" fill="#F5F5F5"/>
<path d="M9.37255 15.6641L9.52521 16.1219L10.0078 16.1255C10.0703 16.1261 10.0961 16.2058 10.0459 16.2429L9.65771 16.5296L9.80333 16.9897C9.82224 17.0492 9.75435 17.0986 9.70349 17.0622L9.31083 16.7816L8.91825 17.0622C8.86739 17.0985 8.79966 17.0492 8.81841 16.9897L8.96403 16.5296L8.57583 16.2429C8.52559 16.2059 8.55145 16.1261 8.61395 16.1255L9.09653 16.1219L9.24919 15.6641C9.26896 15.6048 9.35278 15.6048 9.37255 15.6641Z" fill="#F5F5F5"/>
<path d="M9.37255 18.0589L9.52521 18.5167L10.0078 18.5204C10.0703 18.5209 10.0961 18.6005 10.0459 18.6377L9.65771 18.9244L9.80333 19.3845C9.82224 19.4441 9.75435 19.4934 9.70349 19.457L9.31083 19.1764L8.91825 19.457C8.86739 19.4934 8.79966 19.4441 8.81841 19.3845L8.96403 18.9244L8.57583 18.6377C8.52559 18.6005 8.55145 18.5209 8.61395 18.5204L9.09653 18.5167L9.24919 18.0589C9.26896 17.9997 9.35278 17.9997 9.37255 18.0589Z" fill="#F5F5F5"/>
<path d="M11.2314 9.6536L11.384 10.1114L11.8666 10.1151C11.9291 10.1156 11.9549 10.1953 11.9047 10.2324L11.5165 10.5191L11.6621 10.9792C11.681 11.0388 11.6131 11.0881 11.5623 11.0517L11.1697 10.7711L10.7771 11.0517C10.7263 11.0881 10.6585 11.0388 10.6773 10.9792L10.8229 10.5191L10.4347 10.2324C10.3845 10.1952 10.4103 10.1156 10.4728 10.1151L10.9554 10.1114L11.1081 9.6536C11.1278 9.59438 11.2116 9.59438 11.2314 9.6536Z" fill="#F5F5F5"/>
<path d="M11.2314 12.0485L11.384 12.5063L11.8666 12.51C11.9291 12.5106 11.9549 12.5902 11.9047 12.6274L11.5165 12.9141L11.6621 13.3741C11.681 13.4337 11.6131 13.4831 11.5623 13.4466L11.1697 13.166L10.7771 13.4466C10.7263 13.483 10.6585 13.4338 10.6773 13.3741L10.8229 12.9141L10.4347 12.6274C10.3845 12.5903 10.4103 12.5106 10.4728 12.51L10.9554 12.5063L11.1081 12.0485C11.1278 11.9892 11.2116 11.9892 11.2314 12.0485Z" fill="#F5F5F5"/>
<path d="M11.2314 14.4434L11.384 14.9012L11.8666 14.9048C11.9291 14.9054 11.9549 14.985 11.9047 15.0222L11.5165 15.3089L11.6621 15.769C11.681 15.8285 11.6131 15.8779 11.5623 15.8415L11.1697 15.5609L10.7771 15.8415C10.7263 15.8778 10.6585 15.8285 10.6773 15.769L10.8229 15.3089L10.4347 15.0222C10.3845 14.985 10.4103 14.9054 10.4728 14.9048L10.9554 14.9012L11.1081 14.4434C11.1278 14.3841 11.2116 14.3841 11.2314 14.4434Z" fill="#F5F5F5"/>
<path d="M11.2314 16.8382L11.384 17.296L11.8666 17.2997C11.9291 17.3002 11.9549 17.3798 11.9047 17.417L11.5165 17.7037L11.6621 18.1638C11.681 18.2234 11.6131 18.2727 11.5623 18.2363L11.1697 17.9557L10.7771 18.2363C10.7263 18.2727 10.6585 18.2234 10.6773 18.1638L10.8229 17.7037L10.4347 17.417C10.3845 17.3798 10.4103 17.3002 10.4728 17.2997L10.9554 17.296L11.1081 16.8382C11.1278 16.779 11.2116 16.779 11.2314 16.8382Z" fill="#F5F5F5"/>
<path d="M13.0898 8.47945L13.2424 8.93727L13.725 8.94094C13.7875 8.94149 13.8133 9.02117 13.7631 9.05828L13.3749 9.34492L13.5205 9.805C13.5394 9.86453 13.4715 9.91391 13.4207 9.8775L13.0281 9.59688L12.6355 9.8775C12.5847 9.91391 12.5169 9.86453 12.5357 9.805L12.6813 9.34492L12.2931 9.05828C12.2429 9.0211 12.2687 8.94141 12.3312 8.94094L12.8138 8.93727L12.9665 8.47945C12.9861 8.42016 13.07 8.42016 13.0898 8.47945Z" fill="#F5F5F5"/>
<path d="M13.0898 10.8743L13.2424 11.3321L13.725 11.3358C13.7875 11.3363 13.8133 11.4159 13.7631 11.4531L13.3749 11.7398L13.5205 12.1999C13.5394 12.2594 13.4715 12.3088 13.4207 12.2724L13.0281 11.9918L12.6355 12.2724C12.5847 12.3087 12.5169 12.2594 12.5357 12.1999L12.6813 11.7398L12.2931 11.4531C12.2429 11.4159 12.2687 11.3363 12.3312 11.3358L12.8138 11.3321L12.9665 10.8743C12.9861 10.8151 13.07 10.8151 13.0898 10.8743Z" fill="#F5F5F5"/>
<path d="M13.0898 13.2692L13.2424 13.727L13.725 13.7307C13.7875 13.7313 13.8133 13.8109 13.7631 13.8481L13.3749 14.1348L13.5205 14.5949C13.5394 14.6544 13.4715 14.7038 13.4207 14.6674L13.0281 14.3867L12.6355 14.6674C12.5847 14.7037 12.5169 14.6545 12.5357 14.5949L12.6813 14.1348L12.2931 13.8481C12.2429 13.8109 12.2687 13.7313 12.3312 13.7307L12.8138 13.727L12.9665 13.2692C12.9861 13.2099 13.07 13.2099 13.0898 13.2692Z" fill="#F5F5F5"/>
<path d="M13.0898 15.6641L13.2424 16.1219L13.725 16.1255C13.7875 16.1261 13.8133 16.2058 13.7631 16.2429L13.3749 16.5296L13.5205 16.9897C13.5394 17.0492 13.4715 17.0986 13.4207 17.0622L13.0281 16.7816L12.6355 17.0622C12.5847 17.0985 12.5169 17.0492 12.5357 16.9897L12.6813 16.5296L12.2931 16.2429C12.2429 16.2059 12.2687 16.1261 12.3312 16.1255L12.8138 16.1219L12.9665 15.6641C12.9861 15.6048 13.07 15.6048 13.0898 15.6641Z" fill="#F5F5F5"/>
<path d="M13.0898 18.0589L13.2424 18.5167L13.725 18.5204C13.7875 18.5209 13.8133 18.6005 13.7631 18.6377L13.3749 18.9244L13.5205 19.3845C13.5394 19.4441 13.4715 19.4934 13.4207 19.457L13.0281 19.1764L12.6355 19.457C12.5847 19.4934 12.5169 19.4441 12.5357 19.3845L12.6813 18.9244L12.2931 18.6377C12.2429 18.6005 12.2687 18.5209 12.3312 18.5204L12.8138 18.5167L12.9665 18.0589C12.9861 17.9997 13.07 17.9997 13.0898 18.0589Z" fill="#F5F5F5"/>
<path d="M14.9486 9.6536L15.1013 10.1114L15.5839 10.1151C15.6464 10.1156 15.6722 10.1953 15.622 10.2324L15.2338 10.5191L15.3794 10.9792C15.3983 11.0388 15.3304 11.0881 15.2796 11.0517L14.887 10.7711L14.4944 11.0517C14.4436 11.0881 14.3758 11.0388 14.3946 10.9792L14.5402 10.5191L14.152 10.2324C14.1018 10.1952 14.1276 10.1156 14.1901 10.1151L14.6727 10.1114L14.8254 9.6536C14.845 9.59438 14.9289 9.59438 14.9486 9.6536Z" fill="#F5F5F5"/>
<path d="M14.9486 12.0485L15.1013 12.5063L15.5839 12.51C15.6464 12.5106 15.6722 12.5902 15.622 12.6274L15.2338 12.9141L15.3794 13.3741C15.3983 13.4337 15.3304 13.4831 15.2796 13.4466L14.887 13.166L14.4944 13.4466C14.4436 13.483 14.3758 13.4338 14.3946 13.3741L14.5402 12.9141L14.152 12.6274C14.1018 12.5903 14.1276 12.5106 14.1901 12.51L14.6727 12.5063L14.8254 12.0485C14.845 11.9892 14.9289 11.9892 14.9486 12.0485Z" fill="#F5F5F5"/>
<path d="M14.9486 14.4434L15.1013 14.9012L15.5839 14.9048C15.6464 14.9054 15.6722 14.985 15.622 15.0222L15.2338 15.3089L15.3794 15.769C15.3983 15.8285 15.3304 15.8779 15.2796 15.8415L14.887 15.5609L14.4944 15.8415C14.4436 15.8778 14.3758 15.8285 14.3946 15.769L14.5402 15.3089L14.152 15.0222C14.1018 14.985 14.1276 14.9054 14.1901 14.9048L14.6727 14.9012L14.8254 14.4434C14.845 14.3841 14.9289 14.3841 14.9486 14.4434Z" fill="#F5F5F5"/>
<path d="M14.9486 16.8382L15.1013 17.296L15.5839 17.2997C15.6464 17.3002 15.6722 17.3798 15.622 17.417L15.2338 17.7037L15.3794 18.1638C15.3983 18.2234 15.3304 18.2727 15.2796 18.2363L14.887 17.9557L14.4944 18.2363C14.4436 18.2727 14.3758 18.2234 14.3946 18.1638L14.5402 17.7037L14.152 17.417C14.1018 17.3798 14.1276 17.3002 14.1901 17.2997L14.6727 17.296L14.8254 16.8382C14.845 16.779 14.9289 16.779 14.9486 16.8382Z" fill="#F5F5F5"/>
<path d="M16.8075 8.47945L16.9602 8.93727L17.4428 8.94094C17.5053 8.94149 17.5311 9.02117 17.4809 9.05828L17.0927 9.34492L17.2383 9.805C17.2572 9.86453 17.1893 9.91391 17.1385 9.8775L16.7459 9.59688L16.3533 9.8775C16.3025 9.91391 16.2347 9.86453 16.2535 9.805L16.3991 9.34492L16.0109 9.05828C15.9607 9.0211 15.9865 8.94141 16.049 8.94094L16.5316 8.93727L16.6842 8.47945C16.7039 8.42016 16.7877 8.42016 16.8075 8.47945Z" fill="#F5F5F5"/>
<path d="M16.8075 10.8743L16.9602 11.3321L17.4428 11.3358C17.5053 11.3363 17.5311 11.4159 17.4809 11.4531L17.0927 11.7398L17.2383 12.1999C17.2572 12.2594 17.1893 12.3088 17.1385 12.2724L16.7459 11.9918L16.3533 12.2724C16.3025 12.3087 16.2347 12.2594 16.2535 12.1999L16.3991 11.7398L16.0109 11.4531C15.9607 11.4159 15.9865 11.3363 16.049 11.3358L16.5316 11.3321L16.6842 10.8743C16.7039 10.8151 16.7877 10.8151 16.8075 10.8743Z" fill="#F5F5F5"/>
<path d="M16.8075 13.2692L16.9602 13.727L17.4428 13.7307C17.5053 13.7313 17.5311 13.8109 17.4809 13.8481L17.0927 14.1348L17.2383 14.5949C17.2572 14.6544 17.1893 14.7038 17.1385 14.6674L16.7459 14.3867L16.3533 14.6674C16.3025 14.7037 16.2347 14.6545 16.2535 14.5949L16.3991 14.1348L16.0109 13.8481C15.9607 13.8109 15.9865 13.7313 16.049 13.7307L16.5316 13.727L16.6842 13.2692C16.7039 13.2099 16.7877 13.2099 16.8075 13.2692Z" fill="#F5F5F5"/>
<path d="M16.8075 15.6641L16.9602 16.1219L17.4428 16.1255C17.5053 16.1261 17.5311 16.2058 17.4809 16.2429L17.0927 16.5296L17.2383 16.9897C17.2572 17.0492 17.1893 17.0986 17.1385 17.0622L16.7459 16.7816L16.3533 17.0622C16.3025 17.0985 16.2347 17.0492 16.2535 16.9897L16.3991 16.5296L16.0109 16.2429C15.9607 16.2059 15.9865 16.1261 16.049 16.1255L16.5316 16.1219L16.6842 15.6641C16.7039 15.6048 16.7877 15.6048 16.8075 15.6641Z" fill="#F5F5F5"/>
<path d="M16.8075 18.0589L16.9602 18.5167L17.4428 18.5204C17.5053 18.5209 17.5311 18.6005 17.4809 18.6377L17.0927 18.9244L17.2383 19.3845C17.2572 19.4441 17.1893 19.4934 17.1385 19.457L16.7459 19.1764L16.3533 19.457C16.3025 19.4934 16.2347 19.4441 16.2535 19.3845L16.3991 18.9244L16.0109 18.6377C15.9607 18.6005 15.9865 18.5209 16.049 18.5204L16.5316 18.5167L16.6842 18.0589C16.7039 17.9997 16.7877 17.9997 16.8075 18.0589Z" fill="#F5F5F5"/>
</svg>
