<svg width="15" height="24" viewBox="0 0 15 24" fill="none" xmlns="http://www.w3.org/2000/svg">
<path d="M13.8942 11.2116L13.8941 11.2115L2.7606 1.06401L2.76054 1.06397C2.30021 0.644643 1.56341 0.645332 1.10384 1.06612L1.10378 1.06617C0.631436 1.49894 0.632837 2.20986 1.10614 2.64127L1.10614 2.64127L11.3742 12L1.10577 21.3588L1.10574 21.3588C0.632516 21.7902 0.631115 22.5008 1.10338 22.9336L1.10347 22.9337C1.33601 23.1466 1.63699 23.25 1.93316 23.25C2.22853 23.25 2.52835 23.1473 2.7605 22.9358L2.76055 22.9358L13.8939 12.7887C13.894 12.7887 13.894 12.7886 13.8941 12.7886C14.1191 12.5839 14.25 12.3005 14.25 12C14.25 11.6993 14.1185 11.4163 13.8942 11.2116Z" fill="#453D2B" stroke="#453D2B" stroke-width="0.5"/>
</svg>
