<svg width="30" height="30" viewBox="0 0 30 30" fill="none" xmlns="http://www.w3.org/2000/svg">
<path d="M30 15.0001C30 14.0576 29.9116 13.1143 29.7365 12.1985C29.6575 11.784 29.2945 11.4844 28.8731 11.4844H15.0586C14.5728 11.4844 14.1797 11.8775 14.1797 12.3633V17.6367C14.1797 18.1225 14.5728 18.5156 15.0586 18.5156H22.1465C21.7049 19.4096 21.0963 20.1854 20.3816 20.838L25.3492 25.8056C28.2074 23.0824 30 19.2504 30 15.0001Z" fill="#453D2B"/>
<path d="M15 7.03125C16.7243 7.03125 18.3645 7.57887 19.743 8.61568C20.0914 8.87748 20.5833 8.84572 20.8922 8.53412L24.643 4.7833C24.8173 4.60904 24.9108 4.36957 24.8997 4.12324C24.8885 3.87691 24.7752 3.64687 24.5864 3.48809C21.9025 1.23855 18.4975 0 15 0C9.85257 0 5.30517 2.61645 2.61694 6.58898L7.77601 11.748C9.00683 8.97563 11.7761 7.03125 15 7.03125Z" fill="#453D2B"/>
<path d="M15 30C18.3552 30 21.4449 28.875 23.9415 27.0008L18.8807 21.94C17.7239 22.5913 16.4018 22.9688 15 22.9688C11.7761 22.9688 9.00683 21.0244 7.77601 18.252L2.61694 23.411C5.30517 27.3836 9.85257 30 15 30Z" fill="#453D2B"/>
<path d="M7.15922 16.2659C7.09189 15.8511 7.03125 15.4334 7.03125 15C7.03125 14.5666 7.09189 14.1489 7.15922 13.7341L1.64414 8.21899C0.600703 10.2569 0 12.5576 0 15C0 17.4424 0.600703 19.7431 1.6442 21.7809L7.15922 16.2659Z" fill="#453D2B"/>
</svg>
