<svg width="50" height="50" viewBox="0 0 50 50" fill="none" xmlns="http://www.w3.org/2000/svg">
<path d="M24.9958 6.53955C17.4313 6.53955 10.2479 5.86663 7.50418 12.9083C6.37086 15.8166 6.53544 19.5937 6.53544 25.0019C6.53544 29.7479 6.38336 34.2083 7.50418 37.0937C10.2417 44.1395 17.4834 43.4645 24.9916 43.4645C32.2354 43.4645 39.7042 44.2187 42.4812 37.0937C43.6166 34.1561 43.45 30.4353 43.45 25.0019C43.45 17.7895 43.848 13.1333 40.35 9.63747C36.8084 6.09579 32.0188 6.53955 24.9876 6.53955H24.9958ZM23.3416 9.86663C39.1208 9.84163 41.1292 8.08747 40.0208 32.4561C39.627 41.0749 33.0646 40.1291 24.998 40.1291C10.2896 40.1291 9.86668 39.7083 9.86668 24.9937C9.86668 10.1083 11.0334 9.87497 23.3416 9.86247V9.86663ZM34.85 12.9312C33.627 12.9312 32.6354 13.9229 32.6354 15.1458C32.6354 16.3687 33.627 17.3604 34.85 17.3604C36.073 17.3604 37.0646 16.3687 37.0646 15.1458C37.0646 13.9229 36.073 12.9312 34.85 12.9312ZM24.9958 15.5208C19.7604 15.5208 15.5167 19.7666 15.5167 25.0019C15.5167 30.2375 19.7604 34.4811 24.9958 34.4811C30.2312 34.4811 34.473 30.2375 34.473 25.0019C34.473 19.7666 30.2312 15.5208 24.9958 15.5208ZM24.9958 18.8479C33.1312 18.8479 33.1416 31.1561 24.9958 31.1561C16.8625 31.1561 16.85 18.8479 24.9958 18.8479Z" fill="#453D2B"/>
</svg>
