<svg width="20" height="20" viewBox="0 0 20 20" fill="none" xmlns="http://www.w3.org/2000/svg">
<g clip-path="url(#clip0_1_205)">
<path d="M19.3744 8.74953C19.0294 8.74953 18.7494 9.02951 18.7494 9.37449V16.4516L13.7498 18.4514V11.8743C13.7498 11.5294 13.4698 11.2494 13.1248 11.2494C12.7798 11.2494 12.4998 11.5294 12.4998 11.8743V18.4502L7.50014 16.4503V6.54841L10.3962 7.70709C10.7124 7.83458 11.0799 7.67959 11.2087 7.35836C11.3374 7.03838 11.1812 6.67465 10.8599 6.54591L7.11892 5.0485C7.11892 5.0485 7.11892 5.0485 7.11767 5.0485L7.10767 5.04475C6.95893 4.98476 6.79269 4.98476 6.64394 5.04475L6.6327 5.0485C6.6327 5.0485 6.6327 5.0485 6.63145 5.0485L0.393086 7.5446C0.156851 7.6396 0.000610352 7.86833 0.000610352 8.12457V19.3739C0.000610352 19.5814 0.104354 19.7751 0.275593 19.8914C0.380587 19.9626 0.501829 19.9988 0.625571 19.9988C0.704316 19.9988 0.783061 19.9838 0.858057 19.9539L6.87518 17.5477L12.8811 19.9501C12.8811 19.9501 12.8811 19.9501 12.8823 19.9501L12.8936 19.9551C13.0423 20.0151 13.2085 20.0151 13.3573 19.9551L13.3685 19.9501C13.3685 19.9501 13.3685 19.9501 13.3698 19.9501L19.6081 17.4553C19.8431 17.359 19.9994 17.1303 19.9994 16.874V9.37449C19.9994 9.02951 19.7194 8.74953 19.3744 8.74953ZM6.25022 16.4503L1.25053 18.4502V8.54704L6.25022 6.54716V16.4503Z" fill="#453D2B"/>
<path d="M15.6246 2.49976C14.591 2.49976 13.7498 3.34095 13.7498 4.37464C13.7498 5.40832 14.591 6.24952 15.6246 6.24952C16.6583 6.24952 17.4995 5.40832 17.4995 4.37464C17.4995 3.34095 16.6583 2.49976 15.6246 2.49976ZM15.6246 4.9996C15.2797 4.9996 14.9997 4.71962 14.9997 4.37464C14.9997 4.02966 15.2797 3.74968 15.6246 3.74968C15.9696 3.74968 16.2496 4.02966 16.2496 4.37464C16.2496 4.71962 15.9696 4.9996 15.6246 4.9996Z" fill="#453D2B"/>
<path d="M15.6247 0C13.2123 0 11.2499 1.96238 11.2499 4.37473C11.2499 6.61959 14.7597 10.5956 15.1597 11.0418C15.2784 11.1731 15.4472 11.2493 15.6247 11.2493C15.8022 11.2493 15.9709 11.1731 16.0896 11.0418C16.4896 10.5956 19.9994 6.61959 19.9994 4.37473C19.9994 1.96238 18.037 0 15.6247 0ZM15.6247 9.67065C14.2598 8.052 12.4999 5.56715 12.4999 4.37473C12.4999 2.65233 13.9023 1.24992 15.6247 1.24992C17.3471 1.24992 18.7495 2.65233 18.7495 4.37473C18.7495 5.5659 16.9896 8.052 15.6247 9.67065Z" fill="#453D2B"/>
</g>
<defs>
<clipPath id="clip0_1_205">
<rect width="20" height="20" fill="white"/>
</clipPath>
</defs>
</svg>
