<svg width="40" height="40" viewBox="0 0 40 40" fill="none" xmlns="http://www.w3.org/2000/svg">
<path d="M16.5221 38.642C16.3768 38.4966 16.1752 38.4131 15.9697 38.4131C15.7635 38.4131 15.5627 38.4966 15.4174 38.642C15.2721 38.7874 15.1885 38.9889 15.1885 39.1943C15.1885 39.3998 15.2721 39.6014 15.4174 39.7466C15.5627 39.8919 15.7643 39.9756 15.9697 39.9756C16.1752 39.9756 16.3768 39.892 16.5221 39.7466C16.6674 39.6014 16.751 39.3998 16.751 39.1943C16.751 38.9889 16.6674 38.7873 16.5221 38.642Z" fill="#453D2B"/>
<path d="M4.53125 24.4661C4.09977 24.4661 3.75 24.8159 3.75 25.2474V32.4999C3.75 32.9314 4.09977 33.2812 4.53125 33.2812C4.96273 33.2812 5.3125 32.9314 5.3125 32.4999V25.2474C5.3125 24.816 4.96273 24.4661 4.53125 24.4661Z" fill="#453D2B"/>
<path d="M5.08359 21.4399C4.93828 21.2946 4.73672 21.2109 4.53125 21.2109C4.32578 21.2109 4.12422 21.2945 3.97891 21.4399C3.83359 21.5852 3.75 21.786 3.75 21.9922C3.75 22.1977 3.83359 22.3992 3.97891 22.5445C4.12422 22.6898 4.32578 22.7734 4.53125 22.7734C4.73672 22.7734 4.93828 22.6899 5.08359 22.5445C5.22891 22.3991 5.3125 22.1977 5.3125 21.9922C5.3125 21.7867 5.22891 21.5852 5.08359 21.4399Z" fill="#453D2B"/>
<path d="M40 21.1476C40 19.2771 38.651 17.7166 36.875 17.3853V12.3195C36.875 10.1656 35.1227 8.41324 32.9688 8.41324H28.8862L20.7258 0.252767C20.4207 -0.0522327 19.926 -0.0522327 19.6209 0.252767L17.8048 2.06878L15.9888 0.252767C15.6838 -0.0522327 15.1891 -0.0522327 14.884 0.252767L6.675 8.46183C6.59109 8.43105 6.50086 8.41339 6.40625 8.41339H3.90625C1.75234 8.41339 0 10.1657 0 12.3196C0 12.3766 0.001875 12.4332 0.00429688 12.4895C0.00148438 12.5162 0 12.5435 0 12.5711V36.0696C0 38.2235 1.75234 39.9758 3.90625 39.9758H12.6823C13.1137 39.9758 13.4635 39.626 13.4635 39.1946C13.4635 38.7632 13.1137 38.4133 12.6823 38.4133H3.90625C2.61391 38.4133 1.5625 37.3619 1.5625 36.0696V15.4424C2.21586 15.9339 3.02758 16.2257 3.90625 16.2257L20.2598 16.2416H29.1352C29.1606 16.2416 29.1861 16.2403 29.2114 16.2378C29.2129 16.2377 29.2144 16.2375 29.2159 16.2373C30.3999 16.3539 31.3281 17.3553 31.3281 18.5696V23.4133H21.875C19.7211 23.4133 17.9688 25.1657 17.9688 27.3196C17.9688 29.4735 19.7211 31.2258 21.875 31.2258H31.3281V36.0696C31.3281 37.3619 30.2767 38.4133 28.9844 38.4133H19.2448C18.8133 38.4133 18.4635 38.7632 18.4635 39.1946C18.4635 39.626 18.8133 39.9758 19.2448 39.9758H28.9844C31.1383 39.9758 32.8906 38.2235 32.8906 36.0696V35.7571H32.9688C35.1227 35.7571 36.875 34.0047 36.875 31.8508V31.1472C38.6559 30.7843 40 29.2061 40 27.3196V21.3039C40 21.2876 39.9995 21.2714 39.9985 21.2553C39.9995 21.2195 40 21.1835 40 21.1476ZM18.657 3.4266L20.1734 1.91019L21.8475 3.58433C20.8488 4.18581 19.5942 4.20152 18.5819 3.63206C18.617 3.56675 18.6418 3.49746 18.657 3.4266ZM1.5625 12.3195C1.5625 11.0271 2.61391 9.97574 3.90625 9.97574H5.16102L1.79672 13.34C1.6468 13.0314 1.5625 12.6851 1.5625 12.3195ZM3.90625 14.6632C3.54914 14.6632 3.21055 14.5826 2.90734 14.4392L15.4364 1.91011L16.7 3.17371L5.21039 14.6632H3.90625ZM11.2796 14.6632C11.3859 14.5324 11.4988 14.4064 11.619 14.2863C12.5416 13.3636 13.7683 12.8556 15.073 12.8556C16.3777 12.8556 17.6044 13.3637 18.527 14.2863C18.6472 14.4064 18.7601 14.5325 18.8663 14.6632H11.2796ZM27.6339 14.6632H20.7374C20.4424 14.1193 20.0726 13.6221 19.6318 13.1814C18.4141 11.9636 16.795 11.293 15.0729 11.293C13.3508 11.293 11.7317 11.9636 10.514 13.1814C10.0731 13.6221 9.70328 14.1193 9.40836 14.6632H7.42008L17.3723 4.71121C18.2061 5.3098 19.1895 5.61011 20.1734 5.61011C21.1573 5.61011 22.1406 5.30988 22.9745 4.71121L28.0759 9.81261C27.0505 11.241 26.9029 13.1086 27.6339 14.6632ZM29.2028 14.2878C28.5848 13.2618 28.5848 11.9655 29.2028 10.9396L30.877 12.6137L29.2028 14.2878ZM30.6591 15.0412L32.5342 13.1661C32.8393 12.861 32.8393 12.3664 32.5342 12.0612L30.4487 9.97574H32.9688C34.2611 9.97574 35.3125 11.0271 35.3125 12.3195V23.4132H32.8906V18.5695C32.8906 17.0146 31.9773 15.6695 30.6591 15.0412ZM35.3125 31.8507C35.3125 33.1431 34.2611 34.1945 32.9688 34.1945H32.8906V31.2257H35.3125V31.8507ZM38.4375 27.3195C38.4375 28.6118 37.3861 29.6632 36.0938 29.6632H21.875C20.5827 29.6632 19.5312 28.6118 19.5312 27.3195C19.5312 26.0271 20.5827 24.9757 21.875 24.9757H36.1719C37.019 24.9757 37.8027 24.6992 38.4375 24.2316V27.3195ZM36.875 23.301V18.9943C37.781 19.2908 38.4375 20.1438 38.4375 21.1476C38.4375 22.1514 37.781 23.0044 36.875 23.301Z" fill="#453D2B"/>
<path d="M22.5836 26.767C22.4383 26.6217 22.2367 26.5381 22.0312 26.5381C21.8258 26.5381 21.6242 26.6216 21.4789 26.767C21.3336 26.9123 21.25 27.1139 21.25 27.3193C21.25 27.5248 21.3336 27.7264 21.4789 27.8716C21.6242 28.0169 21.8258 28.1006 22.0312 28.1006C22.2367 28.1006 22.4383 28.017 22.5836 27.8716C22.7289 27.7264 22.8125 27.5248 22.8125 27.3193C22.8125 27.1139 22.7289 26.9123 22.5836 26.767Z" fill="#453D2B"/>
<path d="M22.9386 9.85152C22.6334 9.5466 22.1388 9.54652 21.8337 9.85152L20.4759 11.2093C20.1708 11.5144 20.1708 12.0091 20.4759 12.3143C20.6284 12.4668 20.8283 12.5431 21.0283 12.5431C21.2283 12.5431 21.4283 12.4668 21.5808 12.3143L22.9386 10.9564C23.2437 10.6514 23.2437 10.1568 22.9386 9.85152Z" fill="#453D2B"/>
</svg>
