<svg width="81" height="82" viewBox="0 0 81 82" fill="none" xmlns="http://www.w3.org/2000/svg">
<path d="M5.71218 6.44333C-0.540022 12.9733 0.739594 19.91 0.739594 40.9834C0.739594 58.4832 -2.29701 76.0266 13.5954 80.1568C18.5581 81.44 62.5291 81.44 67.4851 80.1501C74.1021 78.4333 79.4859 73.0368 80.2217 63.6266C80.3245 62.3133 80.3245 19.6767 80.2185 18.3367C79.4359 8.31331 73.2998 2.53666 65.2144 1.36666C63.3613 1.09666 62.9899 1.01666 53.4823 0.999992C19.7582 1.01666 12.3655 -0.493341 5.71218 6.44333Z" fill="url(#paint0_linear_1_347)"/>
<path d="M40.5138 11.4633C28.4769 11.4633 17.0466 10.3867 12.6806 21.6533C10.8772 26.3067 11.1391 32.35 11.1391 41.0032C11.1391 48.5968 10.8971 55.7334 12.6806 60.35C17.0366 71.6233 28.5598 70.5433 40.5072 70.5433C52.0337 70.5433 63.9183 71.75 68.3372 60.35C70.1439 55.6499 69.8788 49.6966 69.8788 41.0032C69.8788 29.4633 70.5121 22.0133 64.9459 16.42C59.3104 10.7533 51.6891 11.4633 40.5008 11.4633H40.5138ZM37.8816 16.7867C62.99 16.7467 66.1858 13.94 64.4221 52.9299C63.7955 66.72 53.3532 65.2067 40.5173 65.2067C17.1129 65.2067 16.4399 64.5334 16.4399 40.99C16.4399 17.1733 18.2964 16.8 37.8816 16.78V16.7867ZM56.1942 21.69C54.2481 21.69 52.6702 23.2767 52.6702 25.2333C52.6702 27.19 54.2481 28.7767 56.1942 28.7767C58.1402 28.7767 59.7181 27.19 59.7181 25.2333C59.7181 23.2767 58.1402 21.69 56.1942 21.69ZM40.5138 25.8333C32.1832 25.8333 25.4304 32.6267 25.4304 41.0032C25.4304 49.3801 32.1832 56.1699 40.5138 56.1699C48.8446 56.1699 55.5943 49.3801 55.5943 41.0032C55.5943 32.6267 48.8446 25.8333 40.5138 25.8333ZM40.5138 31.1567C53.4592 31.1567 53.4757 50.8499 40.5138 50.8499C27.5719 50.8499 27.552 31.1567 40.5138 31.1567Z" fill="white"/>
<defs>
<linearGradient id="paint0_linear_1_347" x1="5.86475" y1="75.8902" x2="80.1566" y2="11.9439" gradientUnits="userSpaceOnUse">
<stop stop-color="#8E7F42"/>
<stop offset="0.5" stop-color="#FF543E"/>
<stop offset="1" stop-color="#C837AB"/>
</linearGradient>
</defs>
</svg>
