<svg width="15" height="15" viewBox="0 0 15 15" fill="none" xmlns="http://www.w3.org/2000/svg">
<g clip-path="url(#clip0_30_327)">
<path d="M14.0028 7.69421C13.9425 7.57073 13.9425 7.42911 14.0028 7.30565L14.5623 6.16118C14.8738 5.52394 14.627 4.76443 14.0004 4.432L12.8751 3.83493C12.7537 3.77054 12.6705 3.65593 12.6467 3.52061L12.4267 2.26586C12.3041 1.56725 11.6579 1.0978 10.9557 1.19714L9.69442 1.37556C9.55828 1.39478 9.42366 1.35101 9.3249 1.25547L8.40935 0.369774C7.89955 -0.123406 7.10093 -0.123436 6.59116 0.369774L5.67558 1.25556C5.5768 1.35113 5.44218 1.39481 5.30606 1.37565L4.04475 1.19723C3.34237 1.09783 2.69637 1.56734 2.57382 2.26594L2.35375 3.52064C2.32999 3.65599 2.24676 3.77057 2.12538 3.83499L1.00009 4.43206C0.373555 4.76446 0.126759 5.52403 0.438242 6.16126L0.997662 7.30571C1.05801 7.4292 1.05801 7.57082 0.997662 7.69427L0.438212 8.83872C0.12673 9.47595 0.373525 10.2355 1.00006 10.5679L2.12535 11.165C2.24676 11.2294 2.32999 11.344 2.35375 11.4793L2.57382 12.734C2.68539 13.37 3.23072 13.816 3.85746 13.816C3.91919 13.816 3.98182 13.8116 4.04478 13.8027L5.30609 13.6243C5.44212 13.605 5.57682 13.6489 5.67561 13.7444L6.59116 14.6301C6.8461 14.8767 7.17311 15 7.50024 15C7.82728 14.9999 8.1545 14.8767 8.40932 14.6301L9.3249 13.7444C9.42369 13.6489 9.55833 13.6052 9.69442 13.6243L10.9557 13.8027C11.6582 13.9021 12.3041 13.4326 12.4267 12.734L12.6468 11.4793C12.6705 11.344 12.7538 11.2294 12.8751 11.165L14.0004 10.5679C14.627 10.2355 14.8738 9.47592 14.5623 8.83869L14.0028 7.69421ZM13.5949 9.80364L12.4696 10.4007C12.1109 10.5911 11.8648 10.9297 11.7946 11.3298L11.5746 12.5845C11.5331 12.8209 11.3146 12.9796 11.0769 12.9461L9.81559 12.7677C9.41334 12.7107 9.01532 12.8401 8.72338 13.1225L7.8078 14.0082C7.63536 14.175 7.36515 14.175 7.19266 14.0082L6.2771 13.1225C6.03037 12.8838 5.70781 12.7545 5.37107 12.7545C5.30938 12.7545 5.24718 12.7588 5.18489 12.7676L3.92358 12.9461C3.6861 12.9796 3.4674 12.8208 3.42592 12.5845L3.20581 11.3297C3.13562 10.9297 2.88958 10.591 2.53079 10.4007L1.4055 9.80361C1.19351 9.69114 1.11002 9.43417 1.2154 9.21858L1.77485 8.0741C1.9532 7.70918 1.9532 7.29065 1.77485 6.92573L1.2154 5.78126C1.11002 5.56566 1.19351 5.3087 1.4055 5.19623L2.53079 4.59916C2.88956 4.40876 3.13562 4.07015 3.20578 3.67008L3.42586 2.41536C3.46734 2.17899 3.68584 2.0202 3.92352 2.05378L5.18483 2.2322C5.58693 2.28912 5.9851 2.15972 6.27705 1.87732L7.19263 0.991626C7.36507 0.824811 7.63527 0.824811 7.80777 0.991626L8.72332 1.87732C9.01526 2.15974 9.41337 2.28912 9.81553 2.2322L11.0768 2.05378C11.3144 2.02018 11.533 2.17899 11.5745 2.41536L11.7946 3.67011C11.8648 4.07018 12.1108 4.40882 12.4696 4.59916L13.5949 5.19623C13.8069 5.3087 13.8904 5.56566 13.785 5.78126L13.2255 6.9257C13.0472 7.29059 13.0472 7.70918 13.2255 8.07407L13.785 9.21852C13.8904 9.43417 13.8069 9.69116 13.5949 9.80364Z" fill="#453D2B"/>
<path d="M10.6605 4.33934C10.4916 4.17042 10.2176 4.17042 10.0487 4.33934L4.3391 10.049C4.17017 10.2179 4.17017 10.4918 4.3391 10.6607C4.42356 10.7452 4.53427 10.7874 4.64495 10.7874C4.75564 10.7874 4.86638 10.7452 4.95081 10.6607L10.6604 4.95111C10.8294 4.78216 10.8294 4.50829 10.6605 4.33934Z" fill="#453D2B"/>
<path d="M5.76969 3.60693C4.89512 3.60693 4.18359 4.31846 4.18359 5.19303C4.18359 6.06759 4.89512 6.77912 5.76969 6.77912C6.64425 6.77912 7.35578 6.06759 7.35578 5.19303C7.35578 4.31846 6.64425 3.60693 5.76969 3.60693ZM5.76969 5.91396C5.37216 5.91396 5.04875 5.59055 5.04875 5.193C5.04875 4.79547 5.37216 4.47207 5.76969 4.47207C6.16722 4.47207 6.49065 4.79547 6.49065 5.193C6.49062 5.59055 6.16722 5.91396 5.76969 5.91396Z" fill="#453D2B"/>
<path d="M9.23014 8.22095C8.35557 8.22095 7.64404 8.93248 7.64404 9.80704C7.64404 10.6816 8.35557 11.3931 9.23014 11.3931C10.1047 11.3931 10.8162 10.6816 10.8162 9.80704C10.8162 8.93248 10.1047 8.22095 9.23014 8.22095ZM9.23014 10.528C8.83261 10.528 8.50917 10.2046 8.50917 9.80704C8.50917 9.40952 8.83258 9.08611 9.23014 9.08611C9.62766 9.08611 9.95107 9.40952 9.95107 9.80704C9.95107 10.2046 9.62766 10.528 9.23014 10.528Z" fill="#453D2B"/>
</g>
<defs>
<clipPath id="clip0_30_327">
<rect width="15" height="15" fill="white"/>
</clipPath>
</defs>
</svg>
