<svg width="50" height="50" viewBox="0 0 50 50" fill="none" xmlns="http://www.w3.org/2000/svg">
<path d="M40.3135 17.9668C39.2422 18.4418 38.0898 18.7631 36.8811 18.9066C38.1151 18.1672 39.0621 16.9974 39.5091 15.6012C38.3544 16.2862 37.075 16.7831 35.7144 17.0509C34.6244 15.89 33.0713 15.1646 31.3515 15.1646C28.052 15.1646 25.376 17.8407 25.376 21.1401C25.376 21.6085 25.429 22.0644 25.5314 22.5021C20.5652 22.2529 16.1618 19.8741 13.2143 16.2577C12.7 17.1401 12.405 18.1672 12.405 19.2622C12.405 21.3349 13.4608 23.1648 15.0633 24.2361C14.0842 24.2053 13.1621 23.9366 12.3569 23.4878C12.3564 23.5132 12.3564 23.5387 12.3564 23.5635C12.3564 26.4589 14.4171 28.8739 17.1502 29.4224C16.6493 29.5598 16.1203 29.6323 15.5762 29.6323C15.1903 29.6323 14.8164 29.5953 14.4519 29.5259C15.2121 31.8993 17.4185 33.6271 20.034 33.6757C17.9884 35.2787 15.4122 36.2337 12.6118 36.2337C12.1304 36.2337 11.6537 36.2057 11.1871 36.1499C13.8302 37.846 16.972 38.8349 20.3464 38.8349C31.3378 38.8349 37.3487 29.7295 37.3487 21.8322C37.3487 21.5733 37.3429 21.3153 37.3312 21.0596C38.4998 20.2172 39.5127 19.1651 40.3135 17.9668Z" fill="#453D2B"/>
</svg>
