<svg width="40" height="40" viewBox="0 0 40 40" fill="none" xmlns="http://www.w3.org/2000/svg">
<g clip-path="url(#clip0_30_3983)">
<path d="M4.30658 21.6242L20.0014 6.154L35.6961 21.6267C36.68 22.6031 38.2782 22.6031 39.2621 21.6267C40.246 20.6502 40.246 19.0696 39.2621 18.0956L21.7842 0.867466C20.8379 -0.0689068 19.1671 -0.0738888 18.2158 0.867466L0.737946 18.0981C-0.245964 19.072 -0.245964 20.6552 0.737946 21.6292C1.72455 22.6004 3.32267 22.6004 4.30658 21.6242Z" fill="#453D2B"/>
<path d="M21.7842 18.3454C20.8379 17.409 19.1671 17.404 18.2158 18.3454L0.737934 35.5735C-0.245975 36.55 -0.245975 38.1306 0.737934 39.1046C1.72184 40.081 3.31997 40.081 4.30387 39.1046L20.0011 23.6344L35.6961 39.1046C36.68 40.081 38.2782 40.081 39.2621 39.1046C40.246 38.1282 40.246 36.5475 39.2621 35.5735L21.7842 18.3454Z" fill="#453D2B"/>
</g>
<defs>
<clipPath id="clip0_30_3983">
<rect width="40" height="40" fill="white" transform="translate(40 40) rotate(-180)"/>
</clipPath>
</defs>
</svg>
