<svg width="50" height="50" viewBox="0 0 50 50" fill="none" xmlns="http://www.w3.org/2000/svg">
<path fill-rule="evenodd" clip-rule="evenodd" d="M24.0556 35.9649H26.0178C26.0178 35.9649 26.6106 35.8997 26.9132 35.5735C27.1918 35.274 27.1828 34.7117 27.1828 34.7117C27.1828 34.7117 27.1444 32.0787 28.3664 31.6911C29.571 31.3091 31.1178 34.2357 32.7574 35.3609C33.9972 36.2127 34.9394 36.0259 34.9394 36.0259L39.3232 35.9649C39.3232 35.9649 41.6164 35.8235 40.529 34.0205C40.44 33.8729 39.8958 32.6867 37.2696 30.2489C34.5208 27.6977 34.889 28.1103 38.2002 23.6971C40.2168 21.0093 41.0228 19.3684 40.771 18.6656C40.5308 17.9962 39.0478 18.1732 39.0478 18.1732L34.1118 18.2039C34.1118 18.2039 33.7458 18.154 33.4744 18.3162C33.2094 18.4753 33.0386 18.8461 33.0386 18.8461C33.0386 18.8461 32.2574 20.9259 31.2154 22.6947C29.0176 26.4271 28.1388 26.6241 27.7796 26.3923C26.944 25.8521 27.1526 24.2225 27.1526 23.0647C27.1526 19.4477 27.701 17.9396 26.0842 17.5493C25.5478 17.4196 25.1528 17.334 23.7808 17.3202C22.0196 17.3019 20.5288 17.3255 19.6848 17.7391C19.1233 18.0141 18.6901 18.6268 18.9539 18.662C19.2801 18.7057 20.019 18.8612 20.4108 19.3947C20.9166 20.0829 20.8988 21.6283 20.8988 21.6283C20.8988 21.6283 21.1892 25.8861 20.22 26.4151C19.5546 26.7777 18.642 26.0371 16.6824 22.6511C15.6784 20.9167 14.9203 18.9994 14.9203 18.9994C14.9203 18.9994 14.7742 18.6411 14.5135 18.4495C14.1971 18.2173 13.755 18.1433 13.755 18.1433L9.06452 18.174C9.06452 18.174 8.3604 18.1937 8.10192 18.4998C7.87196 18.7721 8.08364 19.3354 8.08364 19.3354C8.08364 19.3354 11.7558 27.9267 15.9137 32.2561C19.7262 36.2255 24.0556 35.9649 24.0556 35.9649Z" fill="#453D2B"/>
</svg>
