<svg width="80" height="80" viewBox="0 0 80 80" fill="none" xmlns="http://www.w3.org/2000/svg">
<path d="M0 40.0009C0 62.094 17.9072 80.0007 39.9993 80C62.0928 80.0007 80 62.094 80 40.0009C80.0014 17.9077 62.0928 0 39.9993 0C17.9072 0 0 17.9084 0 40.0009Z" fill="#FA6E51"/>
<path d="M79.9052 42.6231L61.2443 23.9621H61.2441L51.5995 14.3177C51.5004 14.2183 51.3817 14.1392 51.2503 14.0842C51.1195 14.0295 50.978 14 50.8332 14H31.3333C30.7351 14 30.25 14.4852 30.25 15.0833V20.4999H18.3333C17.7352 20.4999 17.25 20.9851 17.25 21.5833V64.9166C17.25 65.2832 17.4442 65.5916 17.723 65.7876C17.7954 65.8903 30.6533 78.7483 30.7561 78.8206C30.7901 78.869 30.8382 78.902 30.8784 78.9429C33.8094 79.6268 36.8601 80 39.9993 79.9998C61.211 80.0007 78.5534 63.4923 79.9052 42.6231Z" fill="#E8573F"/>
<path d="M62.6658 25.4996C62.6108 25.368 62.5316 25.2496 62.4324 25.1504L51.5996 14.3177C51.5004 14.2184 51.382 14.1392 51.2505 14.0842C51.1195 14.0295 50.978 14 50.8332 14H31.3333C30.7349 14 30.25 14.485 30.25 15.0833V20.5001H18.3333C17.735 20.5001 17.25 20.9851 17.25 21.5833V64.9166C17.25 65.5148 17.735 65.9998 18.3333 65.9998H48.6665C49.2649 65.9998 49.7499 65.5148 49.7499 64.9166V59.5001H61.6665C62.2649 59.5001 62.7499 59.0149 62.7499 58.4167V25.9168C62.75 25.7721 62.7205 25.6304 62.6658 25.4996ZM51.9168 17.6984L59.0516 24.8332H51.9168V17.6984ZM47.5833 63.8332H19.4167V22.6667H36.7501V32.4167C36.7501 33.0149 37.235 33.5001 37.8333 33.5001H47.5833V63.8332ZM46.0516 31.3333H38.9168V24.1984L46.0516 31.3333ZM49.7501 57.3333V32.4167C49.7501 32.272 49.7205 32.1307 49.6658 31.9995C49.6108 31.8679 49.5316 31.7495 49.4324 31.6503L38.5996 20.8176C38.5004 20.7184 38.382 20.6393 38.2505 20.5842C38.1195 20.5296 37.978 20.5001 37.8333 20.5001H32.4165V16.1667H49.7501V25.9168C49.7501 26.515 50.235 27 50.8332 27H60.5833V57.3333H49.7501Z" fill="#F4F6F9"/>
</svg>
