<svg width="80" height="80" viewBox="0 0 80 80" fill="none" xmlns="http://www.w3.org/2000/svg">
<path d="M39.9995 79.9991C62.0907 79.9991 79.9988 62.0909 79.9988 39.9997C79.9988 17.9088 62.0907 0.000488281 39.9995 0.000488281C17.9086 0.000488281 0.000244141 17.9088 0.000244141 39.9997C0.000244141 62.0909 17.9086 79.9991 39.9995 79.9991Z" fill="#CB2027"/>
<path d="M43.2287 53.5639C40.2047 53.33 38.934 51.8304 36.5625 50.3911C35.2591 57.2295 33.6662 63.785 28.9481 67.21C27.49 56.8736 31.0858 49.1104 32.7558 40.8698C29.9093 36.0784 33.0979 26.434 39.1017 28.8105C46.4908 31.7325 32.7043 46.6269 41.9593 48.4871C51.6217 50.4295 55.566 31.7218 49.5737 25.6369C40.9161 16.8517 24.3734 25.4372 26.4076 38.0135C26.9032 41.088 30.0804 42.0215 27.6768 46.264C22.1359 45.0368 20.4831 40.6666 20.6956 34.8407C21.0385 25.3039 29.2647 18.6264 37.5158 17.7023C47.951 16.5344 57.7452 21.5341 59.0969 31.3496C60.6179 42.4279 54.3859 54.4253 43.2287 53.5639Z" fill="#F1F2F2"/>
</svg>
