<svg width="80" height="80" viewBox="0 0 80 80" fill="none" xmlns="http://www.w3.org/2000/svg">
<g clip-path="url(#clip0_1_358)">
<path d="M40.0007 79.9993C62.0919 79.9993 80.0003 62.0908 80.0003 39.9996C80.0003 17.9084 62.0919 0 40.0007 0C17.9095 0 0.000976562 17.9084 0.000976562 39.9996C0.000976562 62.0908 17.9095 79.9993 40.0007 79.9993Z" fill="#55ACEE"/>
<path d="M64.5017 28.7466C62.7875 29.5066 60.9436 30.0208 59.0097 30.2503C60.9841 29.0673 62.4993 27.1957 63.2145 24.9617C61.3671 26.0577 59.32 26.8528 57.1431 27.2812C55.3991 25.4238 52.9141 24.2631 50.1625 24.2631C44.8832 24.2631 40.6016 28.5448 40.6016 33.8239C40.6016 34.5735 40.6864 35.3029 40.8503 36.0032C32.9043 35.6044 25.8588 31.7983 21.1429 26.012C20.32 27.424 19.848 29.0673 19.848 30.8193C19.848 34.1356 21.5372 37.0634 24.1013 38.7776C22.5347 38.7283 21.0593 38.2983 19.771 37.5802C19.7703 37.6209 19.7703 37.6616 19.7703 37.7015C19.7703 42.334 23.0673 46.198 27.4403 47.0757C26.6389 47.2954 25.7925 47.4115 24.9219 47.4115C24.3045 47.4115 23.7063 47.3523 23.123 47.2412C24.3393 51.0387 27.8697 53.8031 32.0544 53.8808C28.7815 56.4456 24.6595 57.9736 20.1788 57.9736C19.4087 57.9736 18.6458 57.9288 17.8993 57.8396C22.1283 60.5534 27.1552 62.1356 32.5543 62.1356C50.1404 62.1356 59.7578 47.5671 59.7578 34.9313C59.7578 34.5171 59.7486 34.1043 59.7299 33.6951C61.5996 32.3473 63.2202 30.664 64.5017 28.7466Z" fill="#F1F2F2"/>
</g>
<defs>
<clipPath id="clip0_1_358">
<rect width="80" height="80" fill="white"/>
</clipPath>
</defs>
</svg>
