<svg width="15" height="27" viewBox="0 0 15 27" fill="none" xmlns="http://www.w3.org/2000/svg">
<path d="M1.33223 14.5061L1.33233 14.5062L12.4543 26.2093L12.4543 26.2093C12.9175 26.6964 13.673 26.6955 14.1352 26.2069L14.1353 26.2068C14.5901 25.7257 14.5889 24.9518 14.133 24.472L14.133 24.472L3.83672 13.6377L14.1333 2.80338L14.1334 2.80334C14.5892 2.32351 14.5904 1.54999 14.1357 1.06885L14.1356 1.06877C13.9057 0.825695 13.6009 0.701416 13.2938 0.701416C12.9876 0.701416 12.684 0.824856 12.4544 1.06632L12.4543 1.06637L1.33253 12.769C1.11131 13.0012 0.989555 13.3143 0.989555 13.6376C0.989555 13.9613 1.11178 14.2738 1.33223 14.5061Z" fill="#453D2B" stroke="#453D2B" stroke-width="0.5"/>
</svg>
