<svg width="15" height="27" viewBox="0 0 15 27" fill="none" xmlns="http://www.w3.org/2000/svg">
<path d="M13.647 12.7693L13.6469 12.7692L2.52493 1.06612L2.52488 1.06606C2.06173 0.579 1.30616 0.579919 0.843945 1.06851L0.84389 1.06857C0.389069 1.54967 0.390273 2.32362 0.846212 2.80341L0.846216 2.80342L11.1425 13.6377L0.845844 24.472L0.845813 24.472C0.389951 24.9519 0.388747 25.7254 0.843492 26.2065L0.843569 26.2066C1.07352 26.4497 1.37828 26.574 1.68536 26.574C1.99159 26.574 2.29522 26.4505 2.52483 26.2091L2.52488 26.209L13.6467 14.5064C13.8679 14.2742 13.9896 13.9611 13.9896 13.6377C13.9896 13.3141 13.8674 13.0016 13.647 12.7693Z" fill="#453D2B" stroke="#453D2B" stroke-width="0.5"/>
</svg>
