<svg width="80" height="80" viewBox="0 0 80 80" fill="none" xmlns="http://www.w3.org/2000/svg">
<path d="M40 80C62.0915 80 80 62.0915 80 40C80 17.9086 62.0915 0 40 0C17.9086 0 0 17.9086 0 40C0 62.0915 17.9086 80 40 80Z" fill="#4D76A1"/>
<path fill-rule="evenodd" clip-rule="evenodd" d="M38.4891 57.5436H41.6286C41.6286 57.5436 42.5771 57.4393 43.0613 56.9174C43.507 56.4383 43.4926 55.5385 43.4926 55.5385C43.4926 55.5385 43.4312 51.3257 45.3864 50.7055C47.3137 50.0943 49.7886 54.7769 52.412 56.5772C54.3956 57.9401 55.9032 57.6412 55.9032 57.6412L62.9172 57.5436C62.9172 57.5436 66.5864 57.3174 64.8465 54.4326C64.7041 54.1964 63.8334 52.2985 59.6315 48.398C55.2334 44.3161 55.8225 44.9763 61.1204 37.9151C64.347 33.6147 65.6366 30.9892 65.2337 29.8648C64.8494 28.7938 62.4766 29.0769 62.4766 29.0769L54.579 29.1261C54.579 29.1261 53.9934 29.0462 53.5592 29.3058C53.1352 29.5603 52.8619 30.1536 52.8619 30.1536C52.8619 30.1536 51.612 33.4812 49.9448 36.3113C46.4283 42.2831 45.0222 42.5983 44.4475 42.2275C43.1105 41.3631 43.4443 38.7558 43.4443 36.9033C43.4443 31.1162 44.3217 28.7033 41.7348 28.0787C40.8766 27.8711 40.2446 27.7342 38.0494 27.7121C35.2315 27.6829 32.8462 27.7207 31.4958 28.3824C30.5973 28.8223 29.9043 29.8027 30.3264 29.8591C30.8483 29.929 32.0305 30.1778 32.6574 31.0313C33.4667 32.1324 33.4382 34.6051 33.4382 34.6051C33.4382 34.6051 33.9028 41.4175 32.3521 42.2639C31.2876 42.8441 29.8273 41.6591 26.692 36.2415C25.0855 33.4665 23.8727 30.3989 23.8727 30.3989C23.8727 30.3989 23.6388 29.8256 23.2217 29.519C22.7154 29.1475 22.0081 29.0291 22.0081 29.0291L14.5034 29.0783C14.5034 29.0783 13.3768 29.1097 12.9632 29.5995C12.5953 30.0352 12.934 30.9365 12.934 30.9365C12.934 30.9365 18.8094 44.6825 25.462 51.6095C31.5621 57.9606 38.4891 57.5436 38.4891 57.5436Z" fill="white"/>
</svg>
