<svg width="40" height="40" viewBox="0 0 40 40" fill="none" xmlns="http://www.w3.org/2000/svg">
<g clip-path="url(#clip0_30_3957)">
<path d="M35.6934 18.3758L19.9986 33.846L4.30387 18.3733C3.31996 17.3969 1.72184 17.3969 0.73793 18.3733C-0.245977 19.3498 -0.245977 20.9304 0.73793 21.9044L18.2158 39.1325C19.1621 40.0689 20.8329 40.0739 21.7842 39.1325L39.2621 21.9019C40.246 20.928 40.246 19.3448 39.2621 18.3708C38.2754 17.3996 36.6773 17.3996 35.6934 18.3758Z" fill="#453D2B"/>
<path d="M18.2158 21.6546C19.1621 22.591 20.8329 22.596 21.7842 21.6546L39.2621 4.42648C40.246 3.45004 40.246 1.86936 39.2621 0.895412C38.2782 -0.0810229 36.68 -0.0810229 35.6961 0.895412L19.9989 16.3656L4.30387 0.895412C3.31996 -0.0810229 1.72184 -0.0810229 0.737931 0.895412C-0.245977 1.87185 -0.245977 3.45254 0.737931 4.42648L18.2158 21.6546Z" fill="#453D2B"/>
</g>
<defs>
<clipPath id="clip0_30_3957">
<rect width="40" height="40" fill="white"/>
</clipPath>
</defs>
</svg>
