<svg width="40" height="40" viewBox="0 0 40 40" fill="none" xmlns="http://www.w3.org/2000/svg">
<g clip-path="url(#clip0_30_464)">
<path d="M40 19.8425V26.7955C39.9175 28.8685 36.9569 28.867 36.8751 26.7955V23.7088L31.9025 28.6815C31.6095 28.9745 31.212 29.1391 30.7977 29.1391H22.9132L12.5118 39.5406C11.9016 40.1508 10.9123 40.1508 10.3021 39.5406C9.69191 38.9304 9.69191 37.9411 10.3021 37.331L21.1613 26.4719C21.4542 26.1788 21.8517 26.0142 22.2661 26.0142H30.1504L34.7597 21.405H31.4065C29.3334 21.3225 29.335 18.3618 31.4065 18.28H38.4376C39.3005 18.28 40 18.9795 40 19.8425ZM38.4376 31.4828C37.5746 31.4828 36.8751 32.1824 36.8751 33.0453V38.4358C36.9576 40.5089 39.9182 40.5073 40 38.4358V33.0453C40 32.1824 39.3005 31.4828 38.4376 31.4828ZM32.1877 31.4828C31.3248 31.4828 30.6252 32.1824 30.6252 33.0453V38.4358C30.7077 40.5089 33.6684 40.5073 33.7502 38.4358V33.0453C33.7502 32.1824 33.0507 31.4828 32.1877 31.4828ZM25.9379 31.4828C25.0749 31.4828 24.3754 32.1824 24.3754 33.0453V38.4358C24.4579 40.5089 27.4185 40.5073 27.5003 38.4358V33.0453C27.5003 32.1824 26.8008 31.4828 25.9379 31.4828ZM19.688 36.2484C18.8251 36.2484 18.1255 36.9479 18.1255 37.8108V38.4358C18.208 40.5089 21.1687 40.5073 21.2505 38.4358V37.8108C21.2505 36.9479 20.551 36.2484 19.688 36.2484ZM16.485 26.483C17.3479 26.483 18.0474 25.7834 18.0474 24.9205V23.9608C22.9454 22.1477 21.7626 14.9425 16.4849 14.8426C14.4074 14.7578 14.4175 11.8146 16.485 11.7289C17.1123 11.7289 17.6131 12.0612 17.8591 12.6408C18.1963 13.4351 19.1136 13.8055 19.908 13.4684C20.7023 13.1312 21.0728 12.2139 20.7356 11.4196C20.2126 10.1875 19.2408 9.28649 18.0474 8.86689V7.81144C17.9649 5.73837 15.0043 5.73993 14.9225 7.81144V8.87157C10.0315 10.6846 11.198 17.8672 16.485 17.9675C18.5508 18.053 18.564 21.0175 16.485 21.1036C15.8773 21.1036 15.2747 20.7071 15.0195 20.1394C14.6658 19.3523 13.7409 19.001 12.9539 19.3548C12.1668 19.7085 11.8155 20.6333 12.1693 21.4204C12.7025 22.6069 13.7246 23.5183 14.9225 23.9512V24.9204C14.9225 25.7834 15.622 26.483 16.485 26.483ZM11.0941 31.8324C11.7224 31.8324 12.315 31.4507 12.5533 30.8289C12.8623 30.0232 12.4595 29.1195 11.6537 28.8106C-1.95008 23.3174 1.7035 3.36873 16.4071 3.12413C22.8733 3.12413 28.3748 7.73871 29.4882 14.0965C29.637 14.9464 30.4467 15.5149 31.2967 15.366C32.1467 15.2172 32.7151 14.4075 32.5662 13.5575C31.9086 9.8021 29.937 6.36859 27.0146 3.8895C16.4817 -5.1131 -0.0461406 2.53328 0.00104579 16.4052C-0.0777024 23.0742 4.29852 29.4117 10.5351 31.7285C10.7192 31.799 10.9081 31.8324 11.0941 31.8324Z" fill="#453D2B"/>
</g>
<defs>
<clipPath id="clip0_30_464">
<rect width="40" height="40" fill="white"/>
</clipPath>
</defs>
</svg>
