<svg width="50" height="50" viewBox="0 0 50 50" fill="none" xmlns="http://www.w3.org/2000/svg">
<path d="M27.018 33.4776C25.128 33.3314 24.3338 32.3942 22.8516 31.4946C22.037 35.7686 21.0414 39.8658 18.0926 42.0064C17.1813 35.5462 19.4286 30.6942 20.4724 25.5438C18.6933 22.5492 20.6862 16.5214 24.4386 18.0068C29.0568 19.833 20.4402 29.142 26.2246 30.3046C32.2636 31.5186 34.7288 19.8263 30.9836 16.0232C25.5726 10.5325 15.2334 15.8984 16.5048 23.7586C16.8145 25.6802 18.8003 26.2636 17.298 28.9152C13.835 28.1482 12.802 25.4168 12.9348 21.7756C13.1491 15.8151 18.2905 11.6417 23.4474 11.0641C29.9694 10.3342 36.0908 13.459 36.9356 19.5937C37.8862 26.5176 33.9912 34.016 27.018 33.4776Z" fill="#453D2B"/>
</svg>
