<svg width="40" height="40" viewBox="0 0 40 40" fill="none" xmlns="http://www.w3.org/2000/svg">
<path d="M3.54136 22.1109L0.440103 25.3078C-0.159507 25.926 -0.144585 26.9133 0.473619 27.513C0.776588 27.807 1.16807 27.9531 1.55932 27.9531C1.96636 27.9531 2.37308 27.7947 2.67878 27.4795L5.78004 24.2827C6.37965 23.6645 6.36473 22.6772 5.74652 22.0775C5.12832 21.4777 4.14105 21.4927 3.54136 22.1109Z" fill="#453D2B"/>
<path d="M10.7601 23.1188C9.89897 23.1188 9.20068 23.817 9.20068 24.6783V38.4016C9.20068 39.2627 9.89889 39.961 10.7601 39.961H10.7602C11.6214 39.961 12.3197 39.2628 12.3197 38.4016L12.3195 24.6782C12.3195 23.817 11.6214 23.1188 10.7601 23.1188Z" fill="#453D2B"/>
<path d="M16.8422 19.688C15.981 19.688 15.2827 20.3863 15.2827 21.2475V38.4015C15.2827 39.2627 15.9809 39.961 16.8422 39.961C17.7034 39.961 18.4016 39.2628 18.4016 38.4015V21.2474C18.4015 20.3863 17.7034 19.688 16.8422 19.688Z" fill="#453D2B"/>
<path d="M35.3212 0.0388794H30.6429C29.7816 0.0388794 29.0834 0.737084 29.0834 1.59834C29.0834 2.45959 29.7816 3.15779 30.6429 3.15779H34.753L23.3022 14.6062C22.995 14.9134 22.593 15.0882 22.1954 15.0882C22.1871 15.0882 22.1786 15.0881 22.1702 15.088C21.7873 15.0808 21.396 14.9052 21.0969 14.6061L19.2635 12.7727C18.3659 11.8751 17.1743 11.3548 15.9941 11.3451C15.9826 11.345 15.9712 11.345 15.9598 11.345C14.7382 11.345 13.5184 11.879 12.6067 12.8137L9.26486 16.1706C8.6572 16.781 8.65939 17.7684 9.26978 18.376C9.574 18.6789 9.97197 18.8303 10.3699 18.8303C10.7702 18.8303 11.1704 18.6771 11.4751 18.371L14.8231 15.008C14.8277 15.0035 14.8321 14.9989 14.8367 14.9943C15.1623 14.6589 15.5867 14.46 15.9685 14.4638C16.3319 14.4668 16.7392 14.659 17.0582 14.978L18.8917 16.8114C19.7687 17.6885 20.9125 18.1839 22.1122 18.2063C23.3598 18.2297 24.5983 17.7212 25.5078 16.8116L36.8807 5.44092V9.31765C36.8807 10.1789 37.5789 10.8771 38.4401 10.8771C39.3014 10.8771 39.9996 10.1789 39.9996 9.31765V4.71725C39.9996 2.13763 37.9009 0.0388794 35.3212 0.0388794Z" fill="#453D2B"/>
<path d="M4.60578 30.1364C3.7425 30.1335 3.04102 30.8325 3.04102 31.6959V38.4015C3.04102 39.2627 3.73922 39.961 4.60047 39.961H4.60055C5.4618 39.961 6.16 39.2628 6.16 38.4015V31.6959C6.15992 30.8367 5.46508 30.1393 4.60578 30.1364Z" fill="#453D2B"/>
<path d="M35.2435 13.3723C34.3823 13.3723 33.6841 14.0705 33.6841 14.9317V38.4016C33.6841 39.2628 34.3823 39.9611 35.2435 39.9611H35.2436C36.1048 39.9611 36.8031 39.2629 36.8031 38.4016V14.9317C36.803 14.0704 36.1049 13.3723 35.2435 13.3723Z" fill="#453D2B"/>
<path d="M22.9237 21.6374C22.0625 21.6374 21.3643 22.3356 21.3643 23.1968V38.4016C21.3643 39.2627 22.0625 39.961 22.9237 39.961H22.9238C23.785 39.961 24.4832 39.2628 24.4832 38.4016V23.1968C24.4832 22.3356 23.785 21.6374 22.9237 21.6374Z" fill="#453D2B"/>
<path d="M29.0782 18.6744C28.2191 18.6775 27.5244 19.3749 27.5244 20.2339V38.4016C27.5244 39.2628 28.2226 39.9611 29.0839 39.9611H29.0839C29.9451 39.9611 30.6434 39.2629 30.6434 38.4016V20.2339C30.6432 19.3704 29.9416 18.6712 29.0782 18.6744Z" fill="#453D2B"/>
</svg>
