<svg width="25" height="25" viewBox="0 0 25 25" fill="none" xmlns="http://www.w3.org/2000/svg">
<path d="M10.6771 11.7188H0.78125C0.349998 11.7188 0 11.3688 0 10.9375C0 10.5062 0.349998 10.1562 0.78125 10.1562H10.6771C11.1084 10.1562 11.4584 10.5062 11.4584 10.9375C11.4584 11.3688 11.1084 11.7188 10.6771 11.7188Z" fill="#453D2B"/>
<path d="M6.77129 15.625C6.57121 15.625 6.37132 15.5489 6.21912 15.396C5.91394 15.0906 5.91394 14.5958 6.21912 14.2906L9.57338 10.9366L6.21912 7.58346C5.91394 7.27809 5.91394 6.78333 6.21912 6.47815C6.52429 6.17297 7.01906 6.17297 7.32442 6.47815L11.2307 10.3844C11.5359 10.6896 11.5359 11.1843 11.2307 11.4897L7.32442 15.396C7.17126 15.5489 6.97118 15.625 6.77129 15.625Z" fill="#453D2B"/>
<path d="M16.6672 25C15.5182 25 14.584 24.0656 14.584 22.9166V4.16659C14.584 3.27604 15.1507 2.48125 15.9943 2.18847L22.2527 0.102025C23.6527 -0.327128 25.0006 0.711423 25.0006 2.08338V20.8334C25.0006 21.723 24.4339 22.5166 23.5912 22.8103L17.3308 24.8979C17.1026 24.9687 16.8913 25 16.6672 25ZM22.9172 1.56248C22.8495 1.56248 22.7923 1.57087 22.7308 1.58957L16.4986 3.66762C16.2943 3.73858 16.1465 3.94476 16.1465 4.16659V22.9166C16.1465 23.2719 16.5318 23.5115 16.8537 23.4104L23.086 21.3323C23.2891 21.2614 23.4381 21.0552 23.4381 20.8334V2.08338C23.4381 1.7969 23.2048 1.56248 22.9172 1.56248Z" fill="#453D2B"/>
<path d="M9.11523 5.2084C8.68398 5.2084 8.33398 4.8584 8.33398 4.42715V2.86465C8.33398 1.28441 9.6182 0 11.1984 0H22.9172C23.3484 0 23.6984 0.349998 23.6984 0.78125C23.6984 1.2125 23.3484 1.5625 22.9172 1.5625H11.1984C10.4807 1.5625 9.89648 2.14691 9.89648 2.86465V4.42715C9.89648 4.8584 9.54649 5.2084 9.11523 5.2084Z" fill="#453D2B"/>
<path d="M15.3652 21.875H11.1984C9.6182 21.875 8.33398 20.5906 8.33398 19.0104V17.4479C8.33398 17.0166 8.68398 16.6666 9.11523 16.6666C9.54649 16.6666 9.89648 17.0166 9.89648 17.4479V19.0104C9.89648 19.7281 10.4807 20.3125 11.1984 20.3125H15.3652C15.7965 20.3125 16.1465 20.6625 16.1465 21.0938C16.1465 21.525 15.7965 21.875 15.3652 21.875Z" fill="#453D2B"/>
</svg>
